M48
; DRILL file {KiCad 8.0.0-8.0.0-1~ubuntu23.10.1} date 2024-02-24T12:52:35+1100
; FORMAT={-:-/ absolute / metric / decimal}
; #@! TF.CreationDate,2024-02-24T12:52:35+11:00
; #@! TF.GenerationSoftware,Kicad,Pcbnew,8.0.0-8.0.0-1~ubuntu23.10.1
; #@! TF.FileFunction,Plated,1,2,PTH
FMAT,2
METRIC
; #@! TA.AperFunction,Plated,PTH,ViaDrill
T1C0.300
; #@! TA.AperFunction,Plated,PTH,ComponentDrill
T2C0.900
; #@! TA.AperFunction,Plated,PTH,ComponentDrill
T3C1.000
; #@! TA.AperFunction,Plated,PTH,ComponentDrill
T4C1.300
%
G90
G05
T1
X98.0Y-90.9
X98.1Y-100.8
X198.65Y-108.225
X202.05Y-83.6
X203.6Y-109.15
X203.85Y-100.55
X205.65Y-108.35
X206.55Y-80.3
X207.63Y-68.95
X208.45Y-92.26
X208.45Y-94.85
X208.5Y-97.35
X212.15Y-89.85
X212.35Y-70.65
X212.535Y-78.615
X212.55Y-108.35
X215.15Y-75.25
T2
X92.0Y-78.73
X92.0Y-81.27
X92.0Y-85.98
X92.0Y-88.52
X92.0Y-91.0
X92.0Y-93.54
X92.0Y-95.98
X92.0Y-98.52
X92.0Y-100.871
X92.0Y-103.411
X92.0Y-105.73
X92.0Y-108.27
X210.0Y-81.73
X210.0Y-84.27
T3
X97.76Y-69.73
X97.76Y-72.27
X100.3Y-69.73
X100.3Y-72.27
X102.84Y-69.73
X102.84Y-72.27
X105.38Y-69.73
X105.38Y-72.27
X107.92Y-69.73
X107.92Y-72.27
X110.46Y-69.73
X110.46Y-72.27
X113.0Y-69.73
X113.0Y-72.27
X115.54Y-69.73
X115.54Y-72.27
X118.08Y-69.73
X118.08Y-72.27
X120.62Y-69.73
X120.62Y-72.27
X123.16Y-69.73
X123.16Y-72.27
X125.7Y-69.73
X125.7Y-72.27
X126.87Y-78.75
X128.24Y-69.73
X128.24Y-72.27
X129.41Y-78.75
X131.95Y-78.75
X134.49Y-78.75
X137.03Y-78.75
X139.57Y-78.75
X142.11Y-78.75
X144.65Y-78.75
X147.19Y-78.75
X149.73Y-78.75
X152.27Y-78.75
X154.81Y-78.75
X157.35Y-78.75
X159.89Y-78.75
X162.43Y-78.75
X164.97Y-78.75
X167.51Y-78.75
X170.05Y-78.75
X172.59Y-78.75
X175.13Y-78.75
X222.5Y-93.0
X222.5Y-107.5
X225.0Y-107.5
X227.5Y-93.0
X227.5Y-107.5
T4
X218.75Y-80.5
X218.75Y-85.5
X231.25Y-80.5
X231.25Y-85.5
M30
