%TF.GenerationSoftware,KiCad,Pcbnew,8.0.0-8.0.0-1~ubuntu23.10.1*%
%TF.CreationDate,2024-02-24T12:58:59+11:00*%
%TF.ProjectId,tbc_ui,7462635f-7569-42e6-9b69-6361645f7063,rev?*%
%TF.SameCoordinates,Original*%
%TF.FileFunction,Legend,Top*%
%TF.FilePolarity,Positive*%
%FSLAX46Y46*%
G04 Gerber Fmt 4.6, Leading zero omitted, Abs format (unit mm)*
G04 Created by KiCad (PCBNEW 8.0.0-8.0.0-1~ubuntu23.10.1) date 2024-02-24 12:58:59*
%MOMM*%
%LPD*%
G01*
G04 APERTURE LIST*
%ADD10C,0.150000*%
G04 APERTURE END LIST*
D10*
X203766667Y-99336104D02*
X203728571Y-99374200D01*
X203728571Y-99374200D02*
X203614286Y-99412295D01*
X203614286Y-99412295D02*
X203538095Y-99412295D01*
X203538095Y-99412295D02*
X203423809Y-99374200D01*
X203423809Y-99374200D02*
X203347619Y-99298009D01*
X203347619Y-99298009D02*
X203309524Y-99221819D01*
X203309524Y-99221819D02*
X203271428Y-99069438D01*
X203271428Y-99069438D02*
X203271428Y-98955152D01*
X203271428Y-98955152D02*
X203309524Y-98802771D01*
X203309524Y-98802771D02*
X203347619Y-98726580D01*
X203347619Y-98726580D02*
X203423809Y-98650390D01*
X203423809Y-98650390D02*
X203538095Y-98612295D01*
X203538095Y-98612295D02*
X203614286Y-98612295D01*
X203614286Y-98612295D02*
X203728571Y-98650390D01*
X203728571Y-98650390D02*
X203766667Y-98688485D01*
X204490476Y-98612295D02*
X204109524Y-98612295D01*
X204109524Y-98612295D02*
X204071428Y-98993247D01*
X204071428Y-98993247D02*
X204109524Y-98955152D01*
X204109524Y-98955152D02*
X204185714Y-98917057D01*
X204185714Y-98917057D02*
X204376190Y-98917057D01*
X204376190Y-98917057D02*
X204452381Y-98955152D01*
X204452381Y-98955152D02*
X204490476Y-98993247D01*
X204490476Y-98993247D02*
X204528571Y-99069438D01*
X204528571Y-99069438D02*
X204528571Y-99259914D01*
X204528571Y-99259914D02*
X204490476Y-99336104D01*
X204490476Y-99336104D02*
X204452381Y-99374200D01*
X204452381Y-99374200D02*
X204376190Y-99412295D01*
X204376190Y-99412295D02*
X204185714Y-99412295D01*
X204185714Y-99412295D02*
X204109524Y-99374200D01*
X204109524Y-99374200D02*
X204071428Y-99336104D01*
X207366668Y-111062294D02*
X207100001Y-110681341D01*
X206909525Y-111062294D02*
X206909525Y-110262294D01*
X206909525Y-110262294D02*
X207214287Y-110262294D01*
X207214287Y-110262294D02*
X207290477Y-110300389D01*
X207290477Y-110300389D02*
X207328572Y-110338484D01*
X207328572Y-110338484D02*
X207366668Y-110414675D01*
X207366668Y-110414675D02*
X207366668Y-110528960D01*
X207366668Y-110528960D02*
X207328572Y-110605151D01*
X207328572Y-110605151D02*
X207290477Y-110643246D01*
X207290477Y-110643246D02*
X207214287Y-110681341D01*
X207214287Y-110681341D02*
X206909525Y-110681341D01*
X208052382Y-110528960D02*
X208052382Y-111062294D01*
X207861906Y-110224199D02*
X207671429Y-110795627D01*
X207671429Y-110795627D02*
X208166668Y-110795627D01*
X213859523Y-103862294D02*
X213859523Y-103062294D01*
X213859523Y-103062294D02*
X214049999Y-103062294D01*
X214049999Y-103062294D02*
X214164285Y-103100389D01*
X214164285Y-103100389D02*
X214240475Y-103176579D01*
X214240475Y-103176579D02*
X214278570Y-103252770D01*
X214278570Y-103252770D02*
X214316666Y-103405151D01*
X214316666Y-103405151D02*
X214316666Y-103519437D01*
X214316666Y-103519437D02*
X214278570Y-103671818D01*
X214278570Y-103671818D02*
X214240475Y-103748008D01*
X214240475Y-103748008D02*
X214164285Y-103824199D01*
X214164285Y-103824199D02*
X214049999Y-103862294D01*
X214049999Y-103862294D02*
X213859523Y-103862294D01*
X214621427Y-103138484D02*
X214659523Y-103100389D01*
X214659523Y-103100389D02*
X214735713Y-103062294D01*
X214735713Y-103062294D02*
X214926189Y-103062294D01*
X214926189Y-103062294D02*
X215002380Y-103100389D01*
X215002380Y-103100389D02*
X215040475Y-103138484D01*
X215040475Y-103138484D02*
X215078570Y-103214675D01*
X215078570Y-103214675D02*
X215078570Y-103290865D01*
X215078570Y-103290865D02*
X215040475Y-103405151D01*
X215040475Y-103405151D02*
X214583332Y-103862294D01*
X214583332Y-103862294D02*
X215078570Y-103862294D01*
X201735714Y-77362295D02*
X201469047Y-76981342D01*
X201278571Y-77362295D02*
X201278571Y-76562295D01*
X201278571Y-76562295D02*
X201583333Y-76562295D01*
X201583333Y-76562295D02*
X201659523Y-76600390D01*
X201659523Y-76600390D02*
X201697618Y-76638485D01*
X201697618Y-76638485D02*
X201735714Y-76714676D01*
X201735714Y-76714676D02*
X201735714Y-76828961D01*
X201735714Y-76828961D02*
X201697618Y-76905152D01*
X201697618Y-76905152D02*
X201659523Y-76943247D01*
X201659523Y-76943247D02*
X201583333Y-76981342D01*
X201583333Y-76981342D02*
X201278571Y-76981342D01*
X202497618Y-77362295D02*
X202040475Y-77362295D01*
X202269047Y-77362295D02*
X202269047Y-76562295D01*
X202269047Y-76562295D02*
X202192856Y-76676580D01*
X202192856Y-76676580D02*
X202116666Y-76752771D01*
X202116666Y-76752771D02*
X202040475Y-76790866D01*
X202992857Y-76562295D02*
X203069047Y-76562295D01*
X203069047Y-76562295D02*
X203145238Y-76600390D01*
X203145238Y-76600390D02*
X203183333Y-76638485D01*
X203183333Y-76638485D02*
X203221428Y-76714676D01*
X203221428Y-76714676D02*
X203259523Y-76867057D01*
X203259523Y-76867057D02*
X203259523Y-77057533D01*
X203259523Y-77057533D02*
X203221428Y-77209914D01*
X203221428Y-77209914D02*
X203183333Y-77286104D01*
X203183333Y-77286104D02*
X203145238Y-77324200D01*
X203145238Y-77324200D02*
X203069047Y-77362295D01*
X203069047Y-77362295D02*
X202992857Y-77362295D01*
X202992857Y-77362295D02*
X202916666Y-77324200D01*
X202916666Y-77324200D02*
X202878571Y-77286104D01*
X202878571Y-77286104D02*
X202840476Y-77209914D01*
X202840476Y-77209914D02*
X202802380Y-77057533D01*
X202802380Y-77057533D02*
X202802380Y-76867057D01*
X202802380Y-76867057D02*
X202840476Y-76714676D01*
X202840476Y-76714676D02*
X202878571Y-76638485D01*
X202878571Y-76638485D02*
X202916666Y-76600390D01*
X202916666Y-76600390D02*
X202992857Y-76562295D01*
X209316667Y-103812295D02*
X209050000Y-103431342D01*
X208859524Y-103812295D02*
X208859524Y-103012295D01*
X208859524Y-103012295D02*
X209164286Y-103012295D01*
X209164286Y-103012295D02*
X209240476Y-103050390D01*
X209240476Y-103050390D02*
X209278571Y-103088485D01*
X209278571Y-103088485D02*
X209316667Y-103164676D01*
X209316667Y-103164676D02*
X209316667Y-103278961D01*
X209316667Y-103278961D02*
X209278571Y-103355152D01*
X209278571Y-103355152D02*
X209240476Y-103393247D01*
X209240476Y-103393247D02*
X209164286Y-103431342D01*
X209164286Y-103431342D02*
X208859524Y-103431342D01*
X210002381Y-103012295D02*
X209850000Y-103012295D01*
X209850000Y-103012295D02*
X209773809Y-103050390D01*
X209773809Y-103050390D02*
X209735714Y-103088485D01*
X209735714Y-103088485D02*
X209659524Y-103202771D01*
X209659524Y-103202771D02*
X209621428Y-103355152D01*
X209621428Y-103355152D02*
X209621428Y-103659914D01*
X209621428Y-103659914D02*
X209659524Y-103736104D01*
X209659524Y-103736104D02*
X209697619Y-103774200D01*
X209697619Y-103774200D02*
X209773809Y-103812295D01*
X209773809Y-103812295D02*
X209926190Y-103812295D01*
X209926190Y-103812295D02*
X210002381Y-103774200D01*
X210002381Y-103774200D02*
X210040476Y-103736104D01*
X210040476Y-103736104D02*
X210078571Y-103659914D01*
X210078571Y-103659914D02*
X210078571Y-103469438D01*
X210078571Y-103469438D02*
X210040476Y-103393247D01*
X210040476Y-103393247D02*
X210002381Y-103355152D01*
X210002381Y-103355152D02*
X209926190Y-103317057D01*
X209926190Y-103317057D02*
X209773809Y-103317057D01*
X209773809Y-103317057D02*
X209697619Y-103355152D01*
X209697619Y-103355152D02*
X209659524Y-103393247D01*
X209659524Y-103393247D02*
X209621428Y-103469438D01*
X212316667Y-103786104D02*
X212278571Y-103824200D01*
X212278571Y-103824200D02*
X212164286Y-103862295D01*
X212164286Y-103862295D02*
X212088095Y-103862295D01*
X212088095Y-103862295D02*
X211973809Y-103824200D01*
X211973809Y-103824200D02*
X211897619Y-103748009D01*
X211897619Y-103748009D02*
X211859524Y-103671819D01*
X211859524Y-103671819D02*
X211821428Y-103519438D01*
X211821428Y-103519438D02*
X211821428Y-103405152D01*
X211821428Y-103405152D02*
X211859524Y-103252771D01*
X211859524Y-103252771D02*
X211897619Y-103176580D01*
X211897619Y-103176580D02*
X211973809Y-103100390D01*
X211973809Y-103100390D02*
X212088095Y-103062295D01*
X212088095Y-103062295D02*
X212164286Y-103062295D01*
X212164286Y-103062295D02*
X212278571Y-103100390D01*
X212278571Y-103100390D02*
X212316667Y-103138485D01*
X212621428Y-103138485D02*
X212659524Y-103100390D01*
X212659524Y-103100390D02*
X212735714Y-103062295D01*
X212735714Y-103062295D02*
X212926190Y-103062295D01*
X212926190Y-103062295D02*
X213002381Y-103100390D01*
X213002381Y-103100390D02*
X213040476Y-103138485D01*
X213040476Y-103138485D02*
X213078571Y-103214676D01*
X213078571Y-103214676D02*
X213078571Y-103290866D01*
X213078571Y-103290866D02*
X213040476Y-103405152D01*
X213040476Y-103405152D02*
X212583333Y-103862295D01*
X212583333Y-103862295D02*
X213078571Y-103862295D01*
X95385714Y-84862295D02*
X95119047Y-84481342D01*
X94928571Y-84862295D02*
X94928571Y-84062295D01*
X94928571Y-84062295D02*
X95233333Y-84062295D01*
X95233333Y-84062295D02*
X95309523Y-84100390D01*
X95309523Y-84100390D02*
X95347618Y-84138485D01*
X95347618Y-84138485D02*
X95385714Y-84214676D01*
X95385714Y-84214676D02*
X95385714Y-84328961D01*
X95385714Y-84328961D02*
X95347618Y-84405152D01*
X95347618Y-84405152D02*
X95309523Y-84443247D01*
X95309523Y-84443247D02*
X95233333Y-84481342D01*
X95233333Y-84481342D02*
X94928571Y-84481342D01*
X96147618Y-84862295D02*
X95690475Y-84862295D01*
X95919047Y-84862295D02*
X95919047Y-84062295D01*
X95919047Y-84062295D02*
X95842856Y-84176580D01*
X95842856Y-84176580D02*
X95766666Y-84252771D01*
X95766666Y-84252771D02*
X95690475Y-84290866D01*
X96909523Y-84862295D02*
X96452380Y-84862295D01*
X96680952Y-84862295D02*
X96680952Y-84062295D01*
X96680952Y-84062295D02*
X96604761Y-84176580D01*
X96604761Y-84176580D02*
X96528571Y-84252771D01*
X96528571Y-84252771D02*
X96452380Y-84290866D01*
X85409524Y-86362295D02*
X85409524Y-85562295D01*
X85409524Y-85562295D02*
X85600000Y-85562295D01*
X85600000Y-85562295D02*
X85714286Y-85600390D01*
X85714286Y-85600390D02*
X85790476Y-85676580D01*
X85790476Y-85676580D02*
X85828571Y-85752771D01*
X85828571Y-85752771D02*
X85866667Y-85905152D01*
X85866667Y-85905152D02*
X85866667Y-86019438D01*
X85866667Y-86019438D02*
X85828571Y-86171819D01*
X85828571Y-86171819D02*
X85790476Y-86248009D01*
X85790476Y-86248009D02*
X85714286Y-86324200D01*
X85714286Y-86324200D02*
X85600000Y-86362295D01*
X85600000Y-86362295D02*
X85409524Y-86362295D01*
X86590476Y-85562295D02*
X86209524Y-85562295D01*
X86209524Y-85562295D02*
X86171428Y-85943247D01*
X86171428Y-85943247D02*
X86209524Y-85905152D01*
X86209524Y-85905152D02*
X86285714Y-85867057D01*
X86285714Y-85867057D02*
X86476190Y-85867057D01*
X86476190Y-85867057D02*
X86552381Y-85905152D01*
X86552381Y-85905152D02*
X86590476Y-85943247D01*
X86590476Y-85943247D02*
X86628571Y-86019438D01*
X86628571Y-86019438D02*
X86628571Y-86209914D01*
X86628571Y-86209914D02*
X86590476Y-86286104D01*
X86590476Y-86286104D02*
X86552381Y-86324200D01*
X86552381Y-86324200D02*
X86476190Y-86362295D01*
X86476190Y-86362295D02*
X86285714Y-86362295D01*
X86285714Y-86362295D02*
X86209524Y-86324200D01*
X86209524Y-86324200D02*
X86171428Y-86286104D01*
X84746303Y-87894295D02*
X84479636Y-87513342D01*
X84289160Y-87894295D02*
X84289160Y-87094295D01*
X84289160Y-87094295D02*
X84593922Y-87094295D01*
X84593922Y-87094295D02*
X84670112Y-87132390D01*
X84670112Y-87132390D02*
X84708207Y-87170485D01*
X84708207Y-87170485D02*
X84746303Y-87246676D01*
X84746303Y-87246676D02*
X84746303Y-87360961D01*
X84746303Y-87360961D02*
X84708207Y-87437152D01*
X84708207Y-87437152D02*
X84670112Y-87475247D01*
X84670112Y-87475247D02*
X84593922Y-87513342D01*
X84593922Y-87513342D02*
X84289160Y-87513342D01*
X85393922Y-87856200D02*
X85317731Y-87894295D01*
X85317731Y-87894295D02*
X85165350Y-87894295D01*
X85165350Y-87894295D02*
X85089160Y-87856200D01*
X85089160Y-87856200D02*
X85051064Y-87780009D01*
X85051064Y-87780009D02*
X85051064Y-87475247D01*
X85051064Y-87475247D02*
X85089160Y-87399057D01*
X85089160Y-87399057D02*
X85165350Y-87360961D01*
X85165350Y-87360961D02*
X85317731Y-87360961D01*
X85317731Y-87360961D02*
X85393922Y-87399057D01*
X85393922Y-87399057D02*
X85432017Y-87475247D01*
X85432017Y-87475247D02*
X85432017Y-87551438D01*
X85432017Y-87551438D02*
X85051064Y-87627628D01*
X86117731Y-87894295D02*
X86117731Y-87475247D01*
X86117731Y-87475247D02*
X86079636Y-87399057D01*
X86079636Y-87399057D02*
X86003445Y-87360961D01*
X86003445Y-87360961D02*
X85851064Y-87360961D01*
X85851064Y-87360961D02*
X85774874Y-87399057D01*
X86117731Y-87856200D02*
X86041540Y-87894295D01*
X86041540Y-87894295D02*
X85851064Y-87894295D01*
X85851064Y-87894295D02*
X85774874Y-87856200D01*
X85774874Y-87856200D02*
X85736778Y-87780009D01*
X85736778Y-87780009D02*
X85736778Y-87703819D01*
X85736778Y-87703819D02*
X85774874Y-87627628D01*
X85774874Y-87627628D02*
X85851064Y-87589533D01*
X85851064Y-87589533D02*
X86041540Y-87589533D01*
X86041540Y-87589533D02*
X86117731Y-87551438D01*
X86841541Y-87894295D02*
X86841541Y-87094295D01*
X86841541Y-87856200D02*
X86765350Y-87894295D01*
X86765350Y-87894295D02*
X86612969Y-87894295D01*
X86612969Y-87894295D02*
X86536779Y-87856200D01*
X86536779Y-87856200D02*
X86498684Y-87818104D01*
X86498684Y-87818104D02*
X86460588Y-87741914D01*
X86460588Y-87741914D02*
X86460588Y-87513342D01*
X86460588Y-87513342D02*
X86498684Y-87437152D01*
X86498684Y-87437152D02*
X86536779Y-87399057D01*
X86536779Y-87399057D02*
X86612969Y-87360961D01*
X86612969Y-87360961D02*
X86765350Y-87360961D01*
X86765350Y-87360961D02*
X86841541Y-87399057D01*
X87146303Y-87360961D02*
X87336779Y-87894295D01*
X87527256Y-87360961D02*
X87336779Y-87894295D01*
X87336779Y-87894295D02*
X87260589Y-88084771D01*
X87260589Y-88084771D02*
X87222494Y-88122866D01*
X87222494Y-88122866D02*
X87146303Y-88160961D01*
X89889160Y-85639533D02*
X90498684Y-85639533D01*
X90193922Y-85944295D02*
X90193922Y-85334771D01*
X213566667Y-79062295D02*
X213300000Y-78681342D01*
X213109524Y-79062295D02*
X213109524Y-78262295D01*
X213109524Y-78262295D02*
X213414286Y-78262295D01*
X213414286Y-78262295D02*
X213490476Y-78300390D01*
X213490476Y-78300390D02*
X213528571Y-78338485D01*
X213528571Y-78338485D02*
X213566667Y-78414676D01*
X213566667Y-78414676D02*
X213566667Y-78528961D01*
X213566667Y-78528961D02*
X213528571Y-78605152D01*
X213528571Y-78605152D02*
X213490476Y-78643247D01*
X213490476Y-78643247D02*
X213414286Y-78681342D01*
X213414286Y-78681342D02*
X213109524Y-78681342D01*
X213947619Y-79062295D02*
X214100000Y-79062295D01*
X214100000Y-79062295D02*
X214176190Y-79024200D01*
X214176190Y-79024200D02*
X214214286Y-78986104D01*
X214214286Y-78986104D02*
X214290476Y-78871819D01*
X214290476Y-78871819D02*
X214328571Y-78719438D01*
X214328571Y-78719438D02*
X214328571Y-78414676D01*
X214328571Y-78414676D02*
X214290476Y-78338485D01*
X214290476Y-78338485D02*
X214252381Y-78300390D01*
X214252381Y-78300390D02*
X214176190Y-78262295D01*
X214176190Y-78262295D02*
X214023809Y-78262295D01*
X214023809Y-78262295D02*
X213947619Y-78300390D01*
X213947619Y-78300390D02*
X213909524Y-78338485D01*
X213909524Y-78338485D02*
X213871428Y-78414676D01*
X213871428Y-78414676D02*
X213871428Y-78605152D01*
X213871428Y-78605152D02*
X213909524Y-78681342D01*
X213909524Y-78681342D02*
X213947619Y-78719438D01*
X213947619Y-78719438D02*
X214023809Y-78757533D01*
X214023809Y-78757533D02*
X214176190Y-78757533D01*
X214176190Y-78757533D02*
X214252381Y-78719438D01*
X214252381Y-78719438D02*
X214290476Y-78681342D01*
X214290476Y-78681342D02*
X214328571Y-78605152D01*
X85028571Y-79362295D02*
X85028571Y-78562295D01*
X85028571Y-78562295D02*
X85219047Y-78562295D01*
X85219047Y-78562295D02*
X85333333Y-78600390D01*
X85333333Y-78600390D02*
X85409523Y-78676580D01*
X85409523Y-78676580D02*
X85447618Y-78752771D01*
X85447618Y-78752771D02*
X85485714Y-78905152D01*
X85485714Y-78905152D02*
X85485714Y-79019438D01*
X85485714Y-79019438D02*
X85447618Y-79171819D01*
X85447618Y-79171819D02*
X85409523Y-79248009D01*
X85409523Y-79248009D02*
X85333333Y-79324200D01*
X85333333Y-79324200D02*
X85219047Y-79362295D01*
X85219047Y-79362295D02*
X85028571Y-79362295D01*
X86247618Y-79362295D02*
X85790475Y-79362295D01*
X86019047Y-79362295D02*
X86019047Y-78562295D01*
X86019047Y-78562295D02*
X85942856Y-78676580D01*
X85942856Y-78676580D02*
X85866666Y-78752771D01*
X85866666Y-78752771D02*
X85790475Y-78790866D01*
X86742857Y-78562295D02*
X86819047Y-78562295D01*
X86819047Y-78562295D02*
X86895238Y-78600390D01*
X86895238Y-78600390D02*
X86933333Y-78638485D01*
X86933333Y-78638485D02*
X86971428Y-78714676D01*
X86971428Y-78714676D02*
X87009523Y-78867057D01*
X87009523Y-78867057D02*
X87009523Y-79057533D01*
X87009523Y-79057533D02*
X86971428Y-79209914D01*
X86971428Y-79209914D02*
X86933333Y-79286104D01*
X86933333Y-79286104D02*
X86895238Y-79324200D01*
X86895238Y-79324200D02*
X86819047Y-79362295D01*
X86819047Y-79362295D02*
X86742857Y-79362295D01*
X86742857Y-79362295D02*
X86666666Y-79324200D01*
X86666666Y-79324200D02*
X86628571Y-79286104D01*
X86628571Y-79286104D02*
X86590476Y-79209914D01*
X86590476Y-79209914D02*
X86552380Y-79057533D01*
X86552380Y-79057533D02*
X86552380Y-78867057D01*
X86552380Y-78867057D02*
X86590476Y-78714676D01*
X86590476Y-78714676D02*
X86628571Y-78638485D01*
X86628571Y-78638485D02*
X86666666Y-78600390D01*
X86666666Y-78600390D02*
X86742857Y-78562295D01*
X83289160Y-80894295D02*
X83289160Y-80094295D01*
X83289160Y-80094295D02*
X83593922Y-80094295D01*
X83593922Y-80094295D02*
X83670112Y-80132390D01*
X83670112Y-80132390D02*
X83708207Y-80170485D01*
X83708207Y-80170485D02*
X83746303Y-80246676D01*
X83746303Y-80246676D02*
X83746303Y-80360961D01*
X83746303Y-80360961D02*
X83708207Y-80437152D01*
X83708207Y-80437152D02*
X83670112Y-80475247D01*
X83670112Y-80475247D02*
X83593922Y-80513342D01*
X83593922Y-80513342D02*
X83289160Y-80513342D01*
X84203445Y-80894295D02*
X84127255Y-80856200D01*
X84127255Y-80856200D02*
X84089160Y-80818104D01*
X84089160Y-80818104D02*
X84051064Y-80741914D01*
X84051064Y-80741914D02*
X84051064Y-80513342D01*
X84051064Y-80513342D02*
X84089160Y-80437152D01*
X84089160Y-80437152D02*
X84127255Y-80399057D01*
X84127255Y-80399057D02*
X84203445Y-80360961D01*
X84203445Y-80360961D02*
X84317731Y-80360961D01*
X84317731Y-80360961D02*
X84393922Y-80399057D01*
X84393922Y-80399057D02*
X84432017Y-80437152D01*
X84432017Y-80437152D02*
X84470112Y-80513342D01*
X84470112Y-80513342D02*
X84470112Y-80741914D01*
X84470112Y-80741914D02*
X84432017Y-80818104D01*
X84432017Y-80818104D02*
X84393922Y-80856200D01*
X84393922Y-80856200D02*
X84317731Y-80894295D01*
X84317731Y-80894295D02*
X84203445Y-80894295D01*
X84736779Y-80360961D02*
X84889160Y-80894295D01*
X84889160Y-80894295D02*
X85041541Y-80513342D01*
X85041541Y-80513342D02*
X85193922Y-80894295D01*
X85193922Y-80894295D02*
X85346303Y-80360961D01*
X85955827Y-80856200D02*
X85879636Y-80894295D01*
X85879636Y-80894295D02*
X85727255Y-80894295D01*
X85727255Y-80894295D02*
X85651065Y-80856200D01*
X85651065Y-80856200D02*
X85612969Y-80780009D01*
X85612969Y-80780009D02*
X85612969Y-80475247D01*
X85612969Y-80475247D02*
X85651065Y-80399057D01*
X85651065Y-80399057D02*
X85727255Y-80360961D01*
X85727255Y-80360961D02*
X85879636Y-80360961D01*
X85879636Y-80360961D02*
X85955827Y-80399057D01*
X85955827Y-80399057D02*
X85993922Y-80475247D01*
X85993922Y-80475247D02*
X85993922Y-80551438D01*
X85993922Y-80551438D02*
X85612969Y-80627628D01*
X86336779Y-80894295D02*
X86336779Y-80360961D01*
X86336779Y-80513342D02*
X86374874Y-80437152D01*
X86374874Y-80437152D02*
X86412969Y-80399057D01*
X86412969Y-80399057D02*
X86489160Y-80360961D01*
X86489160Y-80360961D02*
X86565350Y-80360961D01*
X87593922Y-80094295D02*
X87746303Y-80094295D01*
X87746303Y-80094295D02*
X87822493Y-80132390D01*
X87822493Y-80132390D02*
X87898684Y-80208580D01*
X87898684Y-80208580D02*
X87936779Y-80360961D01*
X87936779Y-80360961D02*
X87936779Y-80627628D01*
X87936779Y-80627628D02*
X87898684Y-80780009D01*
X87898684Y-80780009D02*
X87822493Y-80856200D01*
X87822493Y-80856200D02*
X87746303Y-80894295D01*
X87746303Y-80894295D02*
X87593922Y-80894295D01*
X87593922Y-80894295D02*
X87517731Y-80856200D01*
X87517731Y-80856200D02*
X87441541Y-80780009D01*
X87441541Y-80780009D02*
X87403445Y-80627628D01*
X87403445Y-80627628D02*
X87403445Y-80360961D01*
X87403445Y-80360961D02*
X87441541Y-80208580D01*
X87441541Y-80208580D02*
X87517731Y-80132390D01*
X87517731Y-80132390D02*
X87593922Y-80094295D01*
X88279636Y-80360961D02*
X88279636Y-80894295D01*
X88279636Y-80437152D02*
X88317731Y-80399057D01*
X88317731Y-80399057D02*
X88393921Y-80360961D01*
X88393921Y-80360961D02*
X88508207Y-80360961D01*
X88508207Y-80360961D02*
X88584398Y-80399057D01*
X88584398Y-80399057D02*
X88622493Y-80475247D01*
X88622493Y-80475247D02*
X88622493Y-80894295D01*
X89889160Y-78389533D02*
X90498684Y-78389533D01*
X90193922Y-78694295D02*
X90193922Y-78084771D01*
X171716667Y-74536104D02*
X171678571Y-74574200D01*
X171678571Y-74574200D02*
X171564286Y-74612295D01*
X171564286Y-74612295D02*
X171488095Y-74612295D01*
X171488095Y-74612295D02*
X171373809Y-74574200D01*
X171373809Y-74574200D02*
X171297619Y-74498009D01*
X171297619Y-74498009D02*
X171259524Y-74421819D01*
X171259524Y-74421819D02*
X171221428Y-74269438D01*
X171221428Y-74269438D02*
X171221428Y-74155152D01*
X171221428Y-74155152D02*
X171259524Y-74002771D01*
X171259524Y-74002771D02*
X171297619Y-73926580D01*
X171297619Y-73926580D02*
X171373809Y-73850390D01*
X171373809Y-73850390D02*
X171488095Y-73812295D01*
X171488095Y-73812295D02*
X171564286Y-73812295D01*
X171564286Y-73812295D02*
X171678571Y-73850390D01*
X171678571Y-73850390D02*
X171716667Y-73888485D01*
X172402381Y-73812295D02*
X172250000Y-73812295D01*
X172250000Y-73812295D02*
X172173809Y-73850390D01*
X172173809Y-73850390D02*
X172135714Y-73888485D01*
X172135714Y-73888485D02*
X172059524Y-74002771D01*
X172059524Y-74002771D02*
X172021428Y-74155152D01*
X172021428Y-74155152D02*
X172021428Y-74459914D01*
X172021428Y-74459914D02*
X172059524Y-74536104D01*
X172059524Y-74536104D02*
X172097619Y-74574200D01*
X172097619Y-74574200D02*
X172173809Y-74612295D01*
X172173809Y-74612295D02*
X172326190Y-74612295D01*
X172326190Y-74612295D02*
X172402381Y-74574200D01*
X172402381Y-74574200D02*
X172440476Y-74536104D01*
X172440476Y-74536104D02*
X172478571Y-74459914D01*
X172478571Y-74459914D02*
X172478571Y-74269438D01*
X172478571Y-74269438D02*
X172440476Y-74193247D01*
X172440476Y-74193247D02*
X172402381Y-74155152D01*
X172402381Y-74155152D02*
X172326190Y-74117057D01*
X172326190Y-74117057D02*
X172173809Y-74117057D01*
X172173809Y-74117057D02*
X172097619Y-74155152D01*
X172097619Y-74155152D02*
X172059524Y-74193247D01*
X172059524Y-74193247D02*
X172021428Y-74269438D01*
X204909524Y-82362295D02*
X204909524Y-81562295D01*
X204909524Y-81562295D02*
X205100000Y-81562295D01*
X205100000Y-81562295D02*
X205214286Y-81600390D01*
X205214286Y-81600390D02*
X205290476Y-81676580D01*
X205290476Y-81676580D02*
X205328571Y-81752771D01*
X205328571Y-81752771D02*
X205366667Y-81905152D01*
X205366667Y-81905152D02*
X205366667Y-82019438D01*
X205366667Y-82019438D02*
X205328571Y-82171819D01*
X205328571Y-82171819D02*
X205290476Y-82248009D01*
X205290476Y-82248009D02*
X205214286Y-82324200D01*
X205214286Y-82324200D02*
X205100000Y-82362295D01*
X205100000Y-82362295D02*
X204909524Y-82362295D01*
X206052381Y-81828961D02*
X206052381Y-82362295D01*
X205861905Y-81524200D02*
X205671428Y-82095628D01*
X205671428Y-82095628D02*
X206166667Y-82095628D01*
X204055826Y-83475247D02*
X203789160Y-83475247D01*
X203789160Y-83894295D02*
X203789160Y-83094295D01*
X203789160Y-83094295D02*
X204170112Y-83094295D01*
X204474874Y-83894295D02*
X204474874Y-83360961D01*
X204474874Y-83513342D02*
X204512969Y-83437152D01*
X204512969Y-83437152D02*
X204551064Y-83399057D01*
X204551064Y-83399057D02*
X204627255Y-83360961D01*
X204627255Y-83360961D02*
X204703445Y-83360961D01*
X205274874Y-83856200D02*
X205198683Y-83894295D01*
X205198683Y-83894295D02*
X205046302Y-83894295D01*
X205046302Y-83894295D02*
X204970112Y-83856200D01*
X204970112Y-83856200D02*
X204932016Y-83780009D01*
X204932016Y-83780009D02*
X204932016Y-83475247D01*
X204932016Y-83475247D02*
X204970112Y-83399057D01*
X204970112Y-83399057D02*
X205046302Y-83360961D01*
X205046302Y-83360961D02*
X205198683Y-83360961D01*
X205198683Y-83360961D02*
X205274874Y-83399057D01*
X205274874Y-83399057D02*
X205312969Y-83475247D01*
X205312969Y-83475247D02*
X205312969Y-83551438D01*
X205312969Y-83551438D02*
X204932016Y-83627628D01*
X205960588Y-83856200D02*
X205884397Y-83894295D01*
X205884397Y-83894295D02*
X205732016Y-83894295D01*
X205732016Y-83894295D02*
X205655826Y-83856200D01*
X205655826Y-83856200D02*
X205617730Y-83780009D01*
X205617730Y-83780009D02*
X205617730Y-83475247D01*
X205617730Y-83475247D02*
X205655826Y-83399057D01*
X205655826Y-83399057D02*
X205732016Y-83360961D01*
X205732016Y-83360961D02*
X205884397Y-83360961D01*
X205884397Y-83360961D02*
X205960588Y-83399057D01*
X205960588Y-83399057D02*
X205998683Y-83475247D01*
X205998683Y-83475247D02*
X205998683Y-83551438D01*
X205998683Y-83551438D02*
X205617730Y-83627628D01*
X206265349Y-83360961D02*
X206684397Y-83360961D01*
X206684397Y-83360961D02*
X206265349Y-83894295D01*
X206265349Y-83894295D02*
X206684397Y-83894295D01*
X207293921Y-83856200D02*
X207217730Y-83894295D01*
X207217730Y-83894295D02*
X207065349Y-83894295D01*
X207065349Y-83894295D02*
X206989159Y-83856200D01*
X206989159Y-83856200D02*
X206951063Y-83780009D01*
X206951063Y-83780009D02*
X206951063Y-83475247D01*
X206951063Y-83475247D02*
X206989159Y-83399057D01*
X206989159Y-83399057D02*
X207065349Y-83360961D01*
X207065349Y-83360961D02*
X207217730Y-83360961D01*
X207217730Y-83360961D02*
X207293921Y-83399057D01*
X207293921Y-83399057D02*
X207332016Y-83475247D01*
X207332016Y-83475247D02*
X207332016Y-83551438D01*
X207332016Y-83551438D02*
X206951063Y-83627628D01*
X207889160Y-81389533D02*
X208498684Y-81389533D01*
X208193922Y-81694295D02*
X208193922Y-81084771D01*
X95285714Y-77462295D02*
X95019047Y-77081342D01*
X94828571Y-77462295D02*
X94828571Y-76662295D01*
X94828571Y-76662295D02*
X95133333Y-76662295D01*
X95133333Y-76662295D02*
X95209523Y-76700390D01*
X95209523Y-76700390D02*
X95247618Y-76738485D01*
X95247618Y-76738485D02*
X95285714Y-76814676D01*
X95285714Y-76814676D02*
X95285714Y-76928961D01*
X95285714Y-76928961D02*
X95247618Y-77005152D01*
X95247618Y-77005152D02*
X95209523Y-77043247D01*
X95209523Y-77043247D02*
X95133333Y-77081342D01*
X95133333Y-77081342D02*
X94828571Y-77081342D01*
X96047618Y-77462295D02*
X95590475Y-77462295D01*
X95819047Y-77462295D02*
X95819047Y-76662295D01*
X95819047Y-76662295D02*
X95742856Y-76776580D01*
X95742856Y-76776580D02*
X95666666Y-76852771D01*
X95666666Y-76852771D02*
X95590475Y-76890866D01*
X96733333Y-76662295D02*
X96580952Y-76662295D01*
X96580952Y-76662295D02*
X96504761Y-76700390D01*
X96504761Y-76700390D02*
X96466666Y-76738485D01*
X96466666Y-76738485D02*
X96390476Y-76852771D01*
X96390476Y-76852771D02*
X96352380Y-77005152D01*
X96352380Y-77005152D02*
X96352380Y-77309914D01*
X96352380Y-77309914D02*
X96390476Y-77386104D01*
X96390476Y-77386104D02*
X96428571Y-77424200D01*
X96428571Y-77424200D02*
X96504761Y-77462295D01*
X96504761Y-77462295D02*
X96657142Y-77462295D01*
X96657142Y-77462295D02*
X96733333Y-77424200D01*
X96733333Y-77424200D02*
X96771428Y-77386104D01*
X96771428Y-77386104D02*
X96809523Y-77309914D01*
X96809523Y-77309914D02*
X96809523Y-77119438D01*
X96809523Y-77119438D02*
X96771428Y-77043247D01*
X96771428Y-77043247D02*
X96733333Y-77005152D01*
X96733333Y-77005152D02*
X96657142Y-76967057D01*
X96657142Y-76967057D02*
X96504761Y-76967057D01*
X96504761Y-76967057D02*
X96428571Y-77005152D01*
X96428571Y-77005152D02*
X96390476Y-77043247D01*
X96390476Y-77043247D02*
X96352380Y-77119438D01*
X95585714Y-95162295D02*
X95319047Y-94781342D01*
X95128571Y-95162295D02*
X95128571Y-94362295D01*
X95128571Y-94362295D02*
X95433333Y-94362295D01*
X95433333Y-94362295D02*
X95509523Y-94400390D01*
X95509523Y-94400390D02*
X95547618Y-94438485D01*
X95547618Y-94438485D02*
X95585714Y-94514676D01*
X95585714Y-94514676D02*
X95585714Y-94628961D01*
X95585714Y-94628961D02*
X95547618Y-94705152D01*
X95547618Y-94705152D02*
X95509523Y-94743247D01*
X95509523Y-94743247D02*
X95433333Y-94781342D01*
X95433333Y-94781342D02*
X95128571Y-94781342D01*
X96347618Y-95162295D02*
X95890475Y-95162295D01*
X96119047Y-95162295D02*
X96119047Y-94362295D01*
X96119047Y-94362295D02*
X96042856Y-94476580D01*
X96042856Y-94476580D02*
X95966666Y-94552771D01*
X95966666Y-94552771D02*
X95890475Y-94590866D01*
X96614285Y-94362295D02*
X97109523Y-94362295D01*
X97109523Y-94362295D02*
X96842857Y-94667057D01*
X96842857Y-94667057D02*
X96957142Y-94667057D01*
X96957142Y-94667057D02*
X97033333Y-94705152D01*
X97033333Y-94705152D02*
X97071428Y-94743247D01*
X97071428Y-94743247D02*
X97109523Y-94819438D01*
X97109523Y-94819438D02*
X97109523Y-95009914D01*
X97109523Y-95009914D02*
X97071428Y-95086104D01*
X97071428Y-95086104D02*
X97033333Y-95124200D01*
X97033333Y-95124200D02*
X96957142Y-95162295D01*
X96957142Y-95162295D02*
X96728571Y-95162295D01*
X96728571Y-95162295D02*
X96652380Y-95124200D01*
X96652380Y-95124200D02*
X96614285Y-95086104D01*
X199136104Y-83083332D02*
X199174200Y-83121428D01*
X199174200Y-83121428D02*
X199212295Y-83235713D01*
X199212295Y-83235713D02*
X199212295Y-83311904D01*
X199212295Y-83311904D02*
X199174200Y-83426190D01*
X199174200Y-83426190D02*
X199098009Y-83502380D01*
X199098009Y-83502380D02*
X199021819Y-83540475D01*
X199021819Y-83540475D02*
X198869438Y-83578571D01*
X198869438Y-83578571D02*
X198755152Y-83578571D01*
X198755152Y-83578571D02*
X198602771Y-83540475D01*
X198602771Y-83540475D02*
X198526580Y-83502380D01*
X198526580Y-83502380D02*
X198450390Y-83426190D01*
X198450390Y-83426190D02*
X198412295Y-83311904D01*
X198412295Y-83311904D02*
X198412295Y-83235713D01*
X198412295Y-83235713D02*
X198450390Y-83121428D01*
X198450390Y-83121428D02*
X198488485Y-83083332D01*
X198678961Y-82397618D02*
X199212295Y-82397618D01*
X198374200Y-82588094D02*
X198945628Y-82778571D01*
X198945628Y-82778571D02*
X198945628Y-82283332D01*
X199016667Y-77362295D02*
X198750000Y-76981342D01*
X198559524Y-77362295D02*
X198559524Y-76562295D01*
X198559524Y-76562295D02*
X198864286Y-76562295D01*
X198864286Y-76562295D02*
X198940476Y-76600390D01*
X198940476Y-76600390D02*
X198978571Y-76638485D01*
X198978571Y-76638485D02*
X199016667Y-76714676D01*
X199016667Y-76714676D02*
X199016667Y-76828961D01*
X199016667Y-76828961D02*
X198978571Y-76905152D01*
X198978571Y-76905152D02*
X198940476Y-76943247D01*
X198940476Y-76943247D02*
X198864286Y-76981342D01*
X198864286Y-76981342D02*
X198559524Y-76981342D01*
X199283333Y-76562295D02*
X199816667Y-76562295D01*
X199816667Y-76562295D02*
X199473809Y-77362295D01*
X85409524Y-101362295D02*
X85409524Y-100562295D01*
X85409524Y-100562295D02*
X85600000Y-100562295D01*
X85600000Y-100562295D02*
X85714286Y-100600390D01*
X85714286Y-100600390D02*
X85790476Y-100676580D01*
X85790476Y-100676580D02*
X85828571Y-100752771D01*
X85828571Y-100752771D02*
X85866667Y-100905152D01*
X85866667Y-100905152D02*
X85866667Y-101019438D01*
X85866667Y-101019438D02*
X85828571Y-101171819D01*
X85828571Y-101171819D02*
X85790476Y-101248009D01*
X85790476Y-101248009D02*
X85714286Y-101324200D01*
X85714286Y-101324200D02*
X85600000Y-101362295D01*
X85600000Y-101362295D02*
X85409524Y-101362295D01*
X86323809Y-100905152D02*
X86247619Y-100867057D01*
X86247619Y-100867057D02*
X86209524Y-100828961D01*
X86209524Y-100828961D02*
X86171428Y-100752771D01*
X86171428Y-100752771D02*
X86171428Y-100714676D01*
X86171428Y-100714676D02*
X86209524Y-100638485D01*
X86209524Y-100638485D02*
X86247619Y-100600390D01*
X86247619Y-100600390D02*
X86323809Y-100562295D01*
X86323809Y-100562295D02*
X86476190Y-100562295D01*
X86476190Y-100562295D02*
X86552381Y-100600390D01*
X86552381Y-100600390D02*
X86590476Y-100638485D01*
X86590476Y-100638485D02*
X86628571Y-100714676D01*
X86628571Y-100714676D02*
X86628571Y-100752771D01*
X86628571Y-100752771D02*
X86590476Y-100828961D01*
X86590476Y-100828961D02*
X86552381Y-100867057D01*
X86552381Y-100867057D02*
X86476190Y-100905152D01*
X86476190Y-100905152D02*
X86323809Y-100905152D01*
X86323809Y-100905152D02*
X86247619Y-100943247D01*
X86247619Y-100943247D02*
X86209524Y-100981342D01*
X86209524Y-100981342D02*
X86171428Y-101057533D01*
X86171428Y-101057533D02*
X86171428Y-101209914D01*
X86171428Y-101209914D02*
X86209524Y-101286104D01*
X86209524Y-101286104D02*
X86247619Y-101324200D01*
X86247619Y-101324200D02*
X86323809Y-101362295D01*
X86323809Y-101362295D02*
X86476190Y-101362295D01*
X86476190Y-101362295D02*
X86552381Y-101324200D01*
X86552381Y-101324200D02*
X86590476Y-101286104D01*
X86590476Y-101286104D02*
X86628571Y-101209914D01*
X86628571Y-101209914D02*
X86628571Y-101057533D01*
X86628571Y-101057533D02*
X86590476Y-100981342D01*
X86590476Y-100981342D02*
X86552381Y-100943247D01*
X86552381Y-100943247D02*
X86476190Y-100905152D01*
X85170112Y-102094295D02*
X84789160Y-102094295D01*
X84789160Y-102094295D02*
X84751064Y-102475247D01*
X84751064Y-102475247D02*
X84789160Y-102437152D01*
X84789160Y-102437152D02*
X84865350Y-102399057D01*
X84865350Y-102399057D02*
X85055826Y-102399057D01*
X85055826Y-102399057D02*
X85132017Y-102437152D01*
X85132017Y-102437152D02*
X85170112Y-102475247D01*
X85170112Y-102475247D02*
X85208207Y-102551438D01*
X85208207Y-102551438D02*
X85208207Y-102741914D01*
X85208207Y-102741914D02*
X85170112Y-102818104D01*
X85170112Y-102818104D02*
X85132017Y-102856200D01*
X85132017Y-102856200D02*
X85055826Y-102894295D01*
X85055826Y-102894295D02*
X84865350Y-102894295D01*
X84865350Y-102894295D02*
X84789160Y-102856200D01*
X84789160Y-102856200D02*
X84751064Y-102818104D01*
X85703446Y-102094295D02*
X85779636Y-102094295D01*
X85779636Y-102094295D02*
X85855827Y-102132390D01*
X85855827Y-102132390D02*
X85893922Y-102170485D01*
X85893922Y-102170485D02*
X85932017Y-102246676D01*
X85932017Y-102246676D02*
X85970112Y-102399057D01*
X85970112Y-102399057D02*
X85970112Y-102589533D01*
X85970112Y-102589533D02*
X85932017Y-102741914D01*
X85932017Y-102741914D02*
X85893922Y-102818104D01*
X85893922Y-102818104D02*
X85855827Y-102856200D01*
X85855827Y-102856200D02*
X85779636Y-102894295D01*
X85779636Y-102894295D02*
X85703446Y-102894295D01*
X85703446Y-102894295D02*
X85627255Y-102856200D01*
X85627255Y-102856200D02*
X85589160Y-102818104D01*
X85589160Y-102818104D02*
X85551065Y-102741914D01*
X85551065Y-102741914D02*
X85512969Y-102589533D01*
X85512969Y-102589533D02*
X85512969Y-102399057D01*
X85512969Y-102399057D02*
X85551065Y-102246676D01*
X85551065Y-102246676D02*
X85589160Y-102170485D01*
X85589160Y-102170485D02*
X85627255Y-102132390D01*
X85627255Y-102132390D02*
X85703446Y-102094295D01*
X86312970Y-102894295D02*
X86312970Y-102094295D01*
X86312970Y-102475247D02*
X86770113Y-102475247D01*
X86770113Y-102894295D02*
X86770113Y-102094295D01*
X87074874Y-102360961D02*
X87493922Y-102360961D01*
X87493922Y-102360961D02*
X87074874Y-102894295D01*
X87074874Y-102894295D02*
X87493922Y-102894295D01*
X89889160Y-100530701D02*
X90498684Y-100530701D01*
X90193922Y-100835463D02*
X90193922Y-100225939D01*
X205216667Y-103736104D02*
X205178571Y-103774200D01*
X205178571Y-103774200D02*
X205064286Y-103812295D01*
X205064286Y-103812295D02*
X204988095Y-103812295D01*
X204988095Y-103812295D02*
X204873809Y-103774200D01*
X204873809Y-103774200D02*
X204797619Y-103698009D01*
X204797619Y-103698009D02*
X204759524Y-103621819D01*
X204759524Y-103621819D02*
X204721428Y-103469438D01*
X204721428Y-103469438D02*
X204721428Y-103355152D01*
X204721428Y-103355152D02*
X204759524Y-103202771D01*
X204759524Y-103202771D02*
X204797619Y-103126580D01*
X204797619Y-103126580D02*
X204873809Y-103050390D01*
X204873809Y-103050390D02*
X204988095Y-103012295D01*
X204988095Y-103012295D02*
X205064286Y-103012295D01*
X205064286Y-103012295D02*
X205178571Y-103050390D01*
X205178571Y-103050390D02*
X205216667Y-103088485D01*
X205483333Y-103012295D02*
X205978571Y-103012295D01*
X205978571Y-103012295D02*
X205711905Y-103317057D01*
X205711905Y-103317057D02*
X205826190Y-103317057D01*
X205826190Y-103317057D02*
X205902381Y-103355152D01*
X205902381Y-103355152D02*
X205940476Y-103393247D01*
X205940476Y-103393247D02*
X205978571Y-103469438D01*
X205978571Y-103469438D02*
X205978571Y-103659914D01*
X205978571Y-103659914D02*
X205940476Y-103736104D01*
X205940476Y-103736104D02*
X205902381Y-103774200D01*
X205902381Y-103774200D02*
X205826190Y-103812295D01*
X205826190Y-103812295D02*
X205597619Y-103812295D01*
X205597619Y-103812295D02*
X205521428Y-103774200D01*
X205521428Y-103774200D02*
X205483333Y-103736104D01*
X95535714Y-89962295D02*
X95269047Y-89581342D01*
X95078571Y-89962295D02*
X95078571Y-89162295D01*
X95078571Y-89162295D02*
X95383333Y-89162295D01*
X95383333Y-89162295D02*
X95459523Y-89200390D01*
X95459523Y-89200390D02*
X95497618Y-89238485D01*
X95497618Y-89238485D02*
X95535714Y-89314676D01*
X95535714Y-89314676D02*
X95535714Y-89428961D01*
X95535714Y-89428961D02*
X95497618Y-89505152D01*
X95497618Y-89505152D02*
X95459523Y-89543247D01*
X95459523Y-89543247D02*
X95383333Y-89581342D01*
X95383333Y-89581342D02*
X95078571Y-89581342D01*
X96297618Y-89962295D02*
X95840475Y-89962295D01*
X96069047Y-89962295D02*
X96069047Y-89162295D01*
X96069047Y-89162295D02*
X95992856Y-89276580D01*
X95992856Y-89276580D02*
X95916666Y-89352771D01*
X95916666Y-89352771D02*
X95840475Y-89390866D01*
X96602380Y-89238485D02*
X96640476Y-89200390D01*
X96640476Y-89200390D02*
X96716666Y-89162295D01*
X96716666Y-89162295D02*
X96907142Y-89162295D01*
X96907142Y-89162295D02*
X96983333Y-89200390D01*
X96983333Y-89200390D02*
X97021428Y-89238485D01*
X97021428Y-89238485D02*
X97059523Y-89314676D01*
X97059523Y-89314676D02*
X97059523Y-89390866D01*
X97059523Y-89390866D02*
X97021428Y-89505152D01*
X97021428Y-89505152D02*
X96564285Y-89962295D01*
X96564285Y-89962295D02*
X97059523Y-89962295D01*
X95685714Y-104662295D02*
X95419047Y-104281342D01*
X95228571Y-104662295D02*
X95228571Y-103862295D01*
X95228571Y-103862295D02*
X95533333Y-103862295D01*
X95533333Y-103862295D02*
X95609523Y-103900390D01*
X95609523Y-103900390D02*
X95647618Y-103938485D01*
X95647618Y-103938485D02*
X95685714Y-104014676D01*
X95685714Y-104014676D02*
X95685714Y-104128961D01*
X95685714Y-104128961D02*
X95647618Y-104205152D01*
X95647618Y-104205152D02*
X95609523Y-104243247D01*
X95609523Y-104243247D02*
X95533333Y-104281342D01*
X95533333Y-104281342D02*
X95228571Y-104281342D01*
X96447618Y-104662295D02*
X95990475Y-104662295D01*
X96219047Y-104662295D02*
X96219047Y-103862295D01*
X96219047Y-103862295D02*
X96142856Y-103976580D01*
X96142856Y-103976580D02*
X96066666Y-104052771D01*
X96066666Y-104052771D02*
X95990475Y-104090866D01*
X97171428Y-103862295D02*
X96790476Y-103862295D01*
X96790476Y-103862295D02*
X96752380Y-104243247D01*
X96752380Y-104243247D02*
X96790476Y-104205152D01*
X96790476Y-104205152D02*
X96866666Y-104167057D01*
X96866666Y-104167057D02*
X97057142Y-104167057D01*
X97057142Y-104167057D02*
X97133333Y-104205152D01*
X97133333Y-104205152D02*
X97171428Y-104243247D01*
X97171428Y-104243247D02*
X97209523Y-104319438D01*
X97209523Y-104319438D02*
X97209523Y-104509914D01*
X97209523Y-104509914D02*
X97171428Y-104586104D01*
X97171428Y-104586104D02*
X97133333Y-104624200D01*
X97133333Y-104624200D02*
X97057142Y-104662295D01*
X97057142Y-104662295D02*
X96866666Y-104662295D01*
X96866666Y-104662295D02*
X96790476Y-104624200D01*
X96790476Y-104624200D02*
X96752380Y-104586104D01*
X205486667Y-77427295D02*
X205220000Y-77046342D01*
X205029524Y-77427295D02*
X205029524Y-76627295D01*
X205029524Y-76627295D02*
X205334286Y-76627295D01*
X205334286Y-76627295D02*
X205410476Y-76665390D01*
X205410476Y-76665390D02*
X205448571Y-76703485D01*
X205448571Y-76703485D02*
X205486667Y-76779676D01*
X205486667Y-76779676D02*
X205486667Y-76893961D01*
X205486667Y-76893961D02*
X205448571Y-76970152D01*
X205448571Y-76970152D02*
X205410476Y-77008247D01*
X205410476Y-77008247D02*
X205334286Y-77046342D01*
X205334286Y-77046342D02*
X205029524Y-77046342D01*
X205943809Y-76970152D02*
X205867619Y-76932057D01*
X205867619Y-76932057D02*
X205829524Y-76893961D01*
X205829524Y-76893961D02*
X205791428Y-76817771D01*
X205791428Y-76817771D02*
X205791428Y-76779676D01*
X205791428Y-76779676D02*
X205829524Y-76703485D01*
X205829524Y-76703485D02*
X205867619Y-76665390D01*
X205867619Y-76665390D02*
X205943809Y-76627295D01*
X205943809Y-76627295D02*
X206096190Y-76627295D01*
X206096190Y-76627295D02*
X206172381Y-76665390D01*
X206172381Y-76665390D02*
X206210476Y-76703485D01*
X206210476Y-76703485D02*
X206248571Y-76779676D01*
X206248571Y-76779676D02*
X206248571Y-76817771D01*
X206248571Y-76817771D02*
X206210476Y-76893961D01*
X206210476Y-76893961D02*
X206172381Y-76932057D01*
X206172381Y-76932057D02*
X206096190Y-76970152D01*
X206096190Y-76970152D02*
X205943809Y-76970152D01*
X205943809Y-76970152D02*
X205867619Y-77008247D01*
X205867619Y-77008247D02*
X205829524Y-77046342D01*
X205829524Y-77046342D02*
X205791428Y-77122533D01*
X205791428Y-77122533D02*
X205791428Y-77274914D01*
X205791428Y-77274914D02*
X205829524Y-77351104D01*
X205829524Y-77351104D02*
X205867619Y-77389200D01*
X205867619Y-77389200D02*
X205943809Y-77427295D01*
X205943809Y-77427295D02*
X206096190Y-77427295D01*
X206096190Y-77427295D02*
X206172381Y-77389200D01*
X206172381Y-77389200D02*
X206210476Y-77351104D01*
X206210476Y-77351104D02*
X206248571Y-77274914D01*
X206248571Y-77274914D02*
X206248571Y-77122533D01*
X206248571Y-77122533D02*
X206210476Y-77046342D01*
X206210476Y-77046342D02*
X206172381Y-77008247D01*
X206172381Y-77008247D02*
X206096190Y-76970152D01*
X204675476Y-70177295D02*
X204675476Y-70824914D01*
X204675476Y-70824914D02*
X204713571Y-70901104D01*
X204713571Y-70901104D02*
X204751666Y-70939200D01*
X204751666Y-70939200D02*
X204827857Y-70977295D01*
X204827857Y-70977295D02*
X204980238Y-70977295D01*
X204980238Y-70977295D02*
X205056428Y-70939200D01*
X205056428Y-70939200D02*
X205094523Y-70901104D01*
X205094523Y-70901104D02*
X205132619Y-70824914D01*
X205132619Y-70824914D02*
X205132619Y-70177295D01*
X205475475Y-70253485D02*
X205513571Y-70215390D01*
X205513571Y-70215390D02*
X205589761Y-70177295D01*
X205589761Y-70177295D02*
X205780237Y-70177295D01*
X205780237Y-70177295D02*
X205856428Y-70215390D01*
X205856428Y-70215390D02*
X205894523Y-70253485D01*
X205894523Y-70253485D02*
X205932618Y-70329676D01*
X205932618Y-70329676D02*
X205932618Y-70405866D01*
X205932618Y-70405866D02*
X205894523Y-70520152D01*
X205894523Y-70520152D02*
X205437380Y-70977295D01*
X205437380Y-70977295D02*
X205932618Y-70977295D01*
X219433332Y-76324200D02*
X219547618Y-76362295D01*
X219547618Y-76362295D02*
X219738094Y-76362295D01*
X219738094Y-76362295D02*
X219814285Y-76324200D01*
X219814285Y-76324200D02*
X219852380Y-76286104D01*
X219852380Y-76286104D02*
X219890475Y-76209914D01*
X219890475Y-76209914D02*
X219890475Y-76133723D01*
X219890475Y-76133723D02*
X219852380Y-76057533D01*
X219852380Y-76057533D02*
X219814285Y-76019438D01*
X219814285Y-76019438D02*
X219738094Y-75981342D01*
X219738094Y-75981342D02*
X219585713Y-75943247D01*
X219585713Y-75943247D02*
X219509523Y-75905152D01*
X219509523Y-75905152D02*
X219471428Y-75867057D01*
X219471428Y-75867057D02*
X219433332Y-75790866D01*
X219433332Y-75790866D02*
X219433332Y-75714676D01*
X219433332Y-75714676D02*
X219471428Y-75638485D01*
X219471428Y-75638485D02*
X219509523Y-75600390D01*
X219509523Y-75600390D02*
X219585713Y-75562295D01*
X219585713Y-75562295D02*
X219776190Y-75562295D01*
X219776190Y-75562295D02*
X219890475Y-75600390D01*
X220157142Y-75562295D02*
X220347618Y-76362295D01*
X220347618Y-76362295D02*
X220499999Y-75790866D01*
X220499999Y-75790866D02*
X220652380Y-76362295D01*
X220652380Y-76362295D02*
X220842857Y-75562295D01*
X221109523Y-75638485D02*
X221147619Y-75600390D01*
X221147619Y-75600390D02*
X221223809Y-75562295D01*
X221223809Y-75562295D02*
X221414285Y-75562295D01*
X221414285Y-75562295D02*
X221490476Y-75600390D01*
X221490476Y-75600390D02*
X221528571Y-75638485D01*
X221528571Y-75638485D02*
X221566666Y-75714676D01*
X221566666Y-75714676D02*
X221566666Y-75790866D01*
X221566666Y-75790866D02*
X221528571Y-75905152D01*
X221528571Y-75905152D02*
X221071428Y-76362295D01*
X221071428Y-76362295D02*
X221566666Y-76362295D01*
X202216667Y-103812295D02*
X201950000Y-103431342D01*
X201759524Y-103812295D02*
X201759524Y-103012295D01*
X201759524Y-103012295D02*
X202064286Y-103012295D01*
X202064286Y-103012295D02*
X202140476Y-103050390D01*
X202140476Y-103050390D02*
X202178571Y-103088485D01*
X202178571Y-103088485D02*
X202216667Y-103164676D01*
X202216667Y-103164676D02*
X202216667Y-103278961D01*
X202216667Y-103278961D02*
X202178571Y-103355152D01*
X202178571Y-103355152D02*
X202140476Y-103393247D01*
X202140476Y-103393247D02*
X202064286Y-103431342D01*
X202064286Y-103431342D02*
X201759524Y-103431342D01*
X202978571Y-103812295D02*
X202521428Y-103812295D01*
X202750000Y-103812295D02*
X202750000Y-103012295D01*
X202750000Y-103012295D02*
X202673809Y-103126580D01*
X202673809Y-103126580D02*
X202597619Y-103202771D01*
X202597619Y-103202771D02*
X202521428Y-103240866D01*
X206909524Y-103812295D02*
X206909524Y-103012295D01*
X206909524Y-103012295D02*
X207100000Y-103012295D01*
X207100000Y-103012295D02*
X207214286Y-103050390D01*
X207214286Y-103050390D02*
X207290476Y-103126580D01*
X207290476Y-103126580D02*
X207328571Y-103202771D01*
X207328571Y-103202771D02*
X207366667Y-103355152D01*
X207366667Y-103355152D02*
X207366667Y-103469438D01*
X207366667Y-103469438D02*
X207328571Y-103621819D01*
X207328571Y-103621819D02*
X207290476Y-103698009D01*
X207290476Y-103698009D02*
X207214286Y-103774200D01*
X207214286Y-103774200D02*
X207100000Y-103812295D01*
X207100000Y-103812295D02*
X206909524Y-103812295D01*
X207633333Y-103012295D02*
X208128571Y-103012295D01*
X208128571Y-103012295D02*
X207861905Y-103317057D01*
X207861905Y-103317057D02*
X207976190Y-103317057D01*
X207976190Y-103317057D02*
X208052381Y-103355152D01*
X208052381Y-103355152D02*
X208090476Y-103393247D01*
X208090476Y-103393247D02*
X208128571Y-103469438D01*
X208128571Y-103469438D02*
X208128571Y-103659914D01*
X208128571Y-103659914D02*
X208090476Y-103736104D01*
X208090476Y-103736104D02*
X208052381Y-103774200D01*
X208052381Y-103774200D02*
X207976190Y-103812295D01*
X207976190Y-103812295D02*
X207747619Y-103812295D01*
X207747619Y-103812295D02*
X207671428Y-103774200D01*
X207671428Y-103774200D02*
X207633333Y-103736104D01*
X85409524Y-106362295D02*
X85409524Y-105562295D01*
X85409524Y-105562295D02*
X85600000Y-105562295D01*
X85600000Y-105562295D02*
X85714286Y-105600390D01*
X85714286Y-105600390D02*
X85790476Y-105676580D01*
X85790476Y-105676580D02*
X85828571Y-105752771D01*
X85828571Y-105752771D02*
X85866667Y-105905152D01*
X85866667Y-105905152D02*
X85866667Y-106019438D01*
X85866667Y-106019438D02*
X85828571Y-106171819D01*
X85828571Y-106171819D02*
X85790476Y-106248009D01*
X85790476Y-106248009D02*
X85714286Y-106324200D01*
X85714286Y-106324200D02*
X85600000Y-106362295D01*
X85600000Y-106362295D02*
X85409524Y-106362295D01*
X86247619Y-106362295D02*
X86400000Y-106362295D01*
X86400000Y-106362295D02*
X86476190Y-106324200D01*
X86476190Y-106324200D02*
X86514286Y-106286104D01*
X86514286Y-106286104D02*
X86590476Y-106171819D01*
X86590476Y-106171819D02*
X86628571Y-106019438D01*
X86628571Y-106019438D02*
X86628571Y-105714676D01*
X86628571Y-105714676D02*
X86590476Y-105638485D01*
X86590476Y-105638485D02*
X86552381Y-105600390D01*
X86552381Y-105600390D02*
X86476190Y-105562295D01*
X86476190Y-105562295D02*
X86323809Y-105562295D01*
X86323809Y-105562295D02*
X86247619Y-105600390D01*
X86247619Y-105600390D02*
X86209524Y-105638485D01*
X86209524Y-105638485D02*
X86171428Y-105714676D01*
X86171428Y-105714676D02*
X86171428Y-105905152D01*
X86171428Y-105905152D02*
X86209524Y-105981342D01*
X86209524Y-105981342D02*
X86247619Y-106019438D01*
X86247619Y-106019438D02*
X86323809Y-106057533D01*
X86323809Y-106057533D02*
X86476190Y-106057533D01*
X86476190Y-106057533D02*
X86552381Y-106019438D01*
X86552381Y-106019438D02*
X86590476Y-105981342D01*
X86590476Y-105981342D02*
X86628571Y-105905152D01*
X89889160Y-105389533D02*
X90498684Y-105389533D01*
X90193922Y-105694295D02*
X90193922Y-105084771D01*
X85132017Y-107094295D02*
X84979636Y-107094295D01*
X84979636Y-107094295D02*
X84903445Y-107132390D01*
X84903445Y-107132390D02*
X84865350Y-107170485D01*
X84865350Y-107170485D02*
X84789160Y-107284771D01*
X84789160Y-107284771D02*
X84751064Y-107437152D01*
X84751064Y-107437152D02*
X84751064Y-107741914D01*
X84751064Y-107741914D02*
X84789160Y-107818104D01*
X84789160Y-107818104D02*
X84827255Y-107856200D01*
X84827255Y-107856200D02*
X84903445Y-107894295D01*
X84903445Y-107894295D02*
X85055826Y-107894295D01*
X85055826Y-107894295D02*
X85132017Y-107856200D01*
X85132017Y-107856200D02*
X85170112Y-107818104D01*
X85170112Y-107818104D02*
X85208207Y-107741914D01*
X85208207Y-107741914D02*
X85208207Y-107551438D01*
X85208207Y-107551438D02*
X85170112Y-107475247D01*
X85170112Y-107475247D02*
X85132017Y-107437152D01*
X85132017Y-107437152D02*
X85055826Y-107399057D01*
X85055826Y-107399057D02*
X84903445Y-107399057D01*
X84903445Y-107399057D02*
X84827255Y-107437152D01*
X84827255Y-107437152D02*
X84789160Y-107475247D01*
X84789160Y-107475247D02*
X84751064Y-107551438D01*
X85703446Y-107094295D02*
X85779636Y-107094295D01*
X85779636Y-107094295D02*
X85855827Y-107132390D01*
X85855827Y-107132390D02*
X85893922Y-107170485D01*
X85893922Y-107170485D02*
X85932017Y-107246676D01*
X85932017Y-107246676D02*
X85970112Y-107399057D01*
X85970112Y-107399057D02*
X85970112Y-107589533D01*
X85970112Y-107589533D02*
X85932017Y-107741914D01*
X85932017Y-107741914D02*
X85893922Y-107818104D01*
X85893922Y-107818104D02*
X85855827Y-107856200D01*
X85855827Y-107856200D02*
X85779636Y-107894295D01*
X85779636Y-107894295D02*
X85703446Y-107894295D01*
X85703446Y-107894295D02*
X85627255Y-107856200D01*
X85627255Y-107856200D02*
X85589160Y-107818104D01*
X85589160Y-107818104D02*
X85551065Y-107741914D01*
X85551065Y-107741914D02*
X85512969Y-107589533D01*
X85512969Y-107589533D02*
X85512969Y-107399057D01*
X85512969Y-107399057D02*
X85551065Y-107246676D01*
X85551065Y-107246676D02*
X85589160Y-107170485D01*
X85589160Y-107170485D02*
X85627255Y-107132390D01*
X85627255Y-107132390D02*
X85703446Y-107094295D01*
X86312970Y-107894295D02*
X86312970Y-107094295D01*
X86312970Y-107475247D02*
X86770113Y-107475247D01*
X86770113Y-107894295D02*
X86770113Y-107094295D01*
X87074874Y-107360961D02*
X87493922Y-107360961D01*
X87493922Y-107360961D02*
X87074874Y-107894295D01*
X87074874Y-107894295D02*
X87493922Y-107894295D01*
X199859523Y-103762294D02*
X199859523Y-102962294D01*
X199859523Y-102962294D02*
X200049999Y-102962294D01*
X200049999Y-102962294D02*
X200164285Y-103000389D01*
X200164285Y-103000389D02*
X200240475Y-103076579D01*
X200240475Y-103076579D02*
X200278570Y-103152770D01*
X200278570Y-103152770D02*
X200316666Y-103305151D01*
X200316666Y-103305151D02*
X200316666Y-103419437D01*
X200316666Y-103419437D02*
X200278570Y-103571818D01*
X200278570Y-103571818D02*
X200240475Y-103648008D01*
X200240475Y-103648008D02*
X200164285Y-103724199D01*
X200164285Y-103724199D02*
X200049999Y-103762294D01*
X200049999Y-103762294D02*
X199859523Y-103762294D01*
X201078570Y-103762294D02*
X200621427Y-103762294D01*
X200849999Y-103762294D02*
X200849999Y-102962294D01*
X200849999Y-102962294D02*
X200773808Y-103076579D01*
X200773808Y-103076579D02*
X200697618Y-103152770D01*
X200697618Y-103152770D02*
X200621427Y-103190865D01*
X198466667Y-103636104D02*
X198428571Y-103674200D01*
X198428571Y-103674200D02*
X198314286Y-103712295D01*
X198314286Y-103712295D02*
X198238095Y-103712295D01*
X198238095Y-103712295D02*
X198123809Y-103674200D01*
X198123809Y-103674200D02*
X198047619Y-103598009D01*
X198047619Y-103598009D02*
X198009524Y-103521819D01*
X198009524Y-103521819D02*
X197971428Y-103369438D01*
X197971428Y-103369438D02*
X197971428Y-103255152D01*
X197971428Y-103255152D02*
X198009524Y-103102771D01*
X198009524Y-103102771D02*
X198047619Y-103026580D01*
X198047619Y-103026580D02*
X198123809Y-102950390D01*
X198123809Y-102950390D02*
X198238095Y-102912295D01*
X198238095Y-102912295D02*
X198314286Y-102912295D01*
X198314286Y-102912295D02*
X198428571Y-102950390D01*
X198428571Y-102950390D02*
X198466667Y-102988485D01*
X199228571Y-103712295D02*
X198771428Y-103712295D01*
X199000000Y-103712295D02*
X199000000Y-102912295D01*
X199000000Y-102912295D02*
X198923809Y-103026580D01*
X198923809Y-103026580D02*
X198847619Y-103102771D01*
X198847619Y-103102771D02*
X198771428Y-103140866D01*
X102028571Y-78362295D02*
X102028571Y-77562295D01*
X102028571Y-77562295D02*
X102219047Y-77562295D01*
X102219047Y-77562295D02*
X102333333Y-77600390D01*
X102333333Y-77600390D02*
X102409523Y-77676580D01*
X102409523Y-77676580D02*
X102447618Y-77752771D01*
X102447618Y-77752771D02*
X102485714Y-77905152D01*
X102485714Y-77905152D02*
X102485714Y-78019438D01*
X102485714Y-78019438D02*
X102447618Y-78171819D01*
X102447618Y-78171819D02*
X102409523Y-78248009D01*
X102409523Y-78248009D02*
X102333333Y-78324200D01*
X102333333Y-78324200D02*
X102219047Y-78362295D01*
X102219047Y-78362295D02*
X102028571Y-78362295D01*
X102790475Y-78324200D02*
X102904761Y-78362295D01*
X102904761Y-78362295D02*
X103095237Y-78362295D01*
X103095237Y-78362295D02*
X103171428Y-78324200D01*
X103171428Y-78324200D02*
X103209523Y-78286104D01*
X103209523Y-78286104D02*
X103247618Y-78209914D01*
X103247618Y-78209914D02*
X103247618Y-78133723D01*
X103247618Y-78133723D02*
X103209523Y-78057533D01*
X103209523Y-78057533D02*
X103171428Y-78019438D01*
X103171428Y-78019438D02*
X103095237Y-77981342D01*
X103095237Y-77981342D02*
X102942856Y-77943247D01*
X102942856Y-77943247D02*
X102866666Y-77905152D01*
X102866666Y-77905152D02*
X102828571Y-77867057D01*
X102828571Y-77867057D02*
X102790475Y-77790866D01*
X102790475Y-77790866D02*
X102790475Y-77714676D01*
X102790475Y-77714676D02*
X102828571Y-77638485D01*
X102828571Y-77638485D02*
X102866666Y-77600390D01*
X102866666Y-77600390D02*
X102942856Y-77562295D01*
X102942856Y-77562295D02*
X103133333Y-77562295D01*
X103133333Y-77562295D02*
X103247618Y-77600390D01*
X104009523Y-78362295D02*
X103552380Y-78362295D01*
X103780952Y-78362295D02*
X103780952Y-77562295D01*
X103780952Y-77562295D02*
X103704761Y-77676580D01*
X103704761Y-77676580D02*
X103628571Y-77752771D01*
X103628571Y-77752771D02*
X103552380Y-77790866D01*
X214516668Y-111012294D02*
X214250001Y-110631341D01*
X214059525Y-111012294D02*
X214059525Y-110212294D01*
X214059525Y-110212294D02*
X214364287Y-110212294D01*
X214364287Y-110212294D02*
X214440477Y-110250389D01*
X214440477Y-110250389D02*
X214478572Y-110288484D01*
X214478572Y-110288484D02*
X214516668Y-110364675D01*
X214516668Y-110364675D02*
X214516668Y-110478960D01*
X214516668Y-110478960D02*
X214478572Y-110555151D01*
X214478572Y-110555151D02*
X214440477Y-110593246D01*
X214440477Y-110593246D02*
X214364287Y-110631341D01*
X214364287Y-110631341D02*
X214059525Y-110631341D01*
X214783334Y-110212294D02*
X215278572Y-110212294D01*
X215278572Y-110212294D02*
X215011906Y-110517056D01*
X215011906Y-110517056D02*
X215126191Y-110517056D01*
X215126191Y-110517056D02*
X215202382Y-110555151D01*
X215202382Y-110555151D02*
X215240477Y-110593246D01*
X215240477Y-110593246D02*
X215278572Y-110669437D01*
X215278572Y-110669437D02*
X215278572Y-110859913D01*
X215278572Y-110859913D02*
X215240477Y-110936103D01*
X215240477Y-110936103D02*
X215202382Y-110974199D01*
X215202382Y-110974199D02*
X215126191Y-111012294D01*
X215126191Y-111012294D02*
X214897620Y-111012294D01*
X214897620Y-111012294D02*
X214821429Y-110974199D01*
X214821429Y-110974199D02*
X214783334Y-110936103D01*
X213266667Y-74086104D02*
X213228571Y-74124200D01*
X213228571Y-74124200D02*
X213114286Y-74162295D01*
X213114286Y-74162295D02*
X213038095Y-74162295D01*
X213038095Y-74162295D02*
X212923809Y-74124200D01*
X212923809Y-74124200D02*
X212847619Y-74048009D01*
X212847619Y-74048009D02*
X212809524Y-73971819D01*
X212809524Y-73971819D02*
X212771428Y-73819438D01*
X212771428Y-73819438D02*
X212771428Y-73705152D01*
X212771428Y-73705152D02*
X212809524Y-73552771D01*
X212809524Y-73552771D02*
X212847619Y-73476580D01*
X212847619Y-73476580D02*
X212923809Y-73400390D01*
X212923809Y-73400390D02*
X213038095Y-73362295D01*
X213038095Y-73362295D02*
X213114286Y-73362295D01*
X213114286Y-73362295D02*
X213228571Y-73400390D01*
X213228571Y-73400390D02*
X213266667Y-73438485D01*
X213533333Y-73362295D02*
X214066667Y-73362295D01*
X214066667Y-73362295D02*
X213723809Y-74162295D01*
X218533332Y-92624200D02*
X218647618Y-92662295D01*
X218647618Y-92662295D02*
X218838094Y-92662295D01*
X218838094Y-92662295D02*
X218914285Y-92624200D01*
X218914285Y-92624200D02*
X218952380Y-92586104D01*
X218952380Y-92586104D02*
X218990475Y-92509914D01*
X218990475Y-92509914D02*
X218990475Y-92433723D01*
X218990475Y-92433723D02*
X218952380Y-92357533D01*
X218952380Y-92357533D02*
X218914285Y-92319438D01*
X218914285Y-92319438D02*
X218838094Y-92281342D01*
X218838094Y-92281342D02*
X218685713Y-92243247D01*
X218685713Y-92243247D02*
X218609523Y-92205152D01*
X218609523Y-92205152D02*
X218571428Y-92167057D01*
X218571428Y-92167057D02*
X218533332Y-92090866D01*
X218533332Y-92090866D02*
X218533332Y-92014676D01*
X218533332Y-92014676D02*
X218571428Y-91938485D01*
X218571428Y-91938485D02*
X218609523Y-91900390D01*
X218609523Y-91900390D02*
X218685713Y-91862295D01*
X218685713Y-91862295D02*
X218876190Y-91862295D01*
X218876190Y-91862295D02*
X218990475Y-91900390D01*
X219257142Y-91862295D02*
X219447618Y-92662295D01*
X219447618Y-92662295D02*
X219599999Y-92090866D01*
X219599999Y-92090866D02*
X219752380Y-92662295D01*
X219752380Y-92662295D02*
X219942857Y-91862295D01*
X220666666Y-92662295D02*
X220209523Y-92662295D01*
X220438095Y-92662295D02*
X220438095Y-91862295D01*
X220438095Y-91862295D02*
X220361904Y-91976580D01*
X220361904Y-91976580D02*
X220285714Y-92052771D01*
X220285714Y-92052771D02*
X220209523Y-92090866D01*
X204340476Y-89262295D02*
X204340476Y-89909914D01*
X204340476Y-89909914D02*
X204378571Y-89986104D01*
X204378571Y-89986104D02*
X204416666Y-90024200D01*
X204416666Y-90024200D02*
X204492857Y-90062295D01*
X204492857Y-90062295D02*
X204645238Y-90062295D01*
X204645238Y-90062295D02*
X204721428Y-90024200D01*
X204721428Y-90024200D02*
X204759523Y-89986104D01*
X204759523Y-89986104D02*
X204797619Y-89909914D01*
X204797619Y-89909914D02*
X204797619Y-89262295D01*
X205597618Y-90062295D02*
X205140475Y-90062295D01*
X205369047Y-90062295D02*
X205369047Y-89262295D01*
X205369047Y-89262295D02*
X205292856Y-89376580D01*
X205292856Y-89376580D02*
X205216666Y-89452771D01*
X205216666Y-89452771D02*
X205140475Y-89490866D01*
X216116667Y-103812295D02*
X215850000Y-103431342D01*
X215659524Y-103812295D02*
X215659524Y-103012295D01*
X215659524Y-103012295D02*
X215964286Y-103012295D01*
X215964286Y-103012295D02*
X216040476Y-103050390D01*
X216040476Y-103050390D02*
X216078571Y-103088485D01*
X216078571Y-103088485D02*
X216116667Y-103164676D01*
X216116667Y-103164676D02*
X216116667Y-103278961D01*
X216116667Y-103278961D02*
X216078571Y-103355152D01*
X216078571Y-103355152D02*
X216040476Y-103393247D01*
X216040476Y-103393247D02*
X215964286Y-103431342D01*
X215964286Y-103431342D02*
X215659524Y-103431342D01*
X216840476Y-103012295D02*
X216459524Y-103012295D01*
X216459524Y-103012295D02*
X216421428Y-103393247D01*
X216421428Y-103393247D02*
X216459524Y-103355152D01*
X216459524Y-103355152D02*
X216535714Y-103317057D01*
X216535714Y-103317057D02*
X216726190Y-103317057D01*
X216726190Y-103317057D02*
X216802381Y-103355152D01*
X216802381Y-103355152D02*
X216840476Y-103393247D01*
X216840476Y-103393247D02*
X216878571Y-103469438D01*
X216878571Y-103469438D02*
X216878571Y-103659914D01*
X216878571Y-103659914D02*
X216840476Y-103736104D01*
X216840476Y-103736104D02*
X216802381Y-103774200D01*
X216802381Y-103774200D02*
X216726190Y-103812295D01*
X216726190Y-103812295D02*
X216535714Y-103812295D01*
X216535714Y-103812295D02*
X216459524Y-103774200D01*
X216459524Y-103774200D02*
X216421428Y-103736104D01*
X85409524Y-91362295D02*
X85409524Y-90562295D01*
X85409524Y-90562295D02*
X85600000Y-90562295D01*
X85600000Y-90562295D02*
X85714286Y-90600390D01*
X85714286Y-90600390D02*
X85790476Y-90676580D01*
X85790476Y-90676580D02*
X85828571Y-90752771D01*
X85828571Y-90752771D02*
X85866667Y-90905152D01*
X85866667Y-90905152D02*
X85866667Y-91019438D01*
X85866667Y-91019438D02*
X85828571Y-91171819D01*
X85828571Y-91171819D02*
X85790476Y-91248009D01*
X85790476Y-91248009D02*
X85714286Y-91324200D01*
X85714286Y-91324200D02*
X85600000Y-91362295D01*
X85600000Y-91362295D02*
X85409524Y-91362295D01*
X86552381Y-90562295D02*
X86400000Y-90562295D01*
X86400000Y-90562295D02*
X86323809Y-90600390D01*
X86323809Y-90600390D02*
X86285714Y-90638485D01*
X86285714Y-90638485D02*
X86209524Y-90752771D01*
X86209524Y-90752771D02*
X86171428Y-90905152D01*
X86171428Y-90905152D02*
X86171428Y-91209914D01*
X86171428Y-91209914D02*
X86209524Y-91286104D01*
X86209524Y-91286104D02*
X86247619Y-91324200D01*
X86247619Y-91324200D02*
X86323809Y-91362295D01*
X86323809Y-91362295D02*
X86476190Y-91362295D01*
X86476190Y-91362295D02*
X86552381Y-91324200D01*
X86552381Y-91324200D02*
X86590476Y-91286104D01*
X86590476Y-91286104D02*
X86628571Y-91209914D01*
X86628571Y-91209914D02*
X86628571Y-91019438D01*
X86628571Y-91019438D02*
X86590476Y-90943247D01*
X86590476Y-90943247D02*
X86552381Y-90905152D01*
X86552381Y-90905152D02*
X86476190Y-90867057D01*
X86476190Y-90867057D02*
X86323809Y-90867057D01*
X86323809Y-90867057D02*
X86247619Y-90905152D01*
X86247619Y-90905152D02*
X86209524Y-90943247D01*
X86209524Y-90943247D02*
X86171428Y-91019438D01*
X84251064Y-92856200D02*
X84365350Y-92894295D01*
X84365350Y-92894295D02*
X84555826Y-92894295D01*
X84555826Y-92894295D02*
X84632017Y-92856200D01*
X84632017Y-92856200D02*
X84670112Y-92818104D01*
X84670112Y-92818104D02*
X84708207Y-92741914D01*
X84708207Y-92741914D02*
X84708207Y-92665723D01*
X84708207Y-92665723D02*
X84670112Y-92589533D01*
X84670112Y-92589533D02*
X84632017Y-92551438D01*
X84632017Y-92551438D02*
X84555826Y-92513342D01*
X84555826Y-92513342D02*
X84403445Y-92475247D01*
X84403445Y-92475247D02*
X84327255Y-92437152D01*
X84327255Y-92437152D02*
X84289160Y-92399057D01*
X84289160Y-92399057D02*
X84251064Y-92322866D01*
X84251064Y-92322866D02*
X84251064Y-92246676D01*
X84251064Y-92246676D02*
X84289160Y-92170485D01*
X84289160Y-92170485D02*
X84327255Y-92132390D01*
X84327255Y-92132390D02*
X84403445Y-92094295D01*
X84403445Y-92094295D02*
X84593922Y-92094295D01*
X84593922Y-92094295D02*
X84708207Y-92132390D01*
X85051065Y-92894295D02*
X85051065Y-92360961D01*
X85051065Y-92094295D02*
X85012969Y-92132390D01*
X85012969Y-92132390D02*
X85051065Y-92170485D01*
X85051065Y-92170485D02*
X85089160Y-92132390D01*
X85089160Y-92132390D02*
X85051065Y-92094295D01*
X85051065Y-92094295D02*
X85051065Y-92170485D01*
X85774874Y-92360961D02*
X85774874Y-93008580D01*
X85774874Y-93008580D02*
X85736779Y-93084771D01*
X85736779Y-93084771D02*
X85698683Y-93122866D01*
X85698683Y-93122866D02*
X85622493Y-93160961D01*
X85622493Y-93160961D02*
X85508207Y-93160961D01*
X85508207Y-93160961D02*
X85432017Y-93122866D01*
X85774874Y-92856200D02*
X85698683Y-92894295D01*
X85698683Y-92894295D02*
X85546302Y-92894295D01*
X85546302Y-92894295D02*
X85470112Y-92856200D01*
X85470112Y-92856200D02*
X85432017Y-92818104D01*
X85432017Y-92818104D02*
X85393921Y-92741914D01*
X85393921Y-92741914D02*
X85393921Y-92513342D01*
X85393921Y-92513342D02*
X85432017Y-92437152D01*
X85432017Y-92437152D02*
X85470112Y-92399057D01*
X85470112Y-92399057D02*
X85546302Y-92360961D01*
X85546302Y-92360961D02*
X85698683Y-92360961D01*
X85698683Y-92360961D02*
X85774874Y-92399057D01*
X86155827Y-92360961D02*
X86155827Y-92894295D01*
X86155827Y-92437152D02*
X86193922Y-92399057D01*
X86193922Y-92399057D02*
X86270112Y-92360961D01*
X86270112Y-92360961D02*
X86384398Y-92360961D01*
X86384398Y-92360961D02*
X86460589Y-92399057D01*
X86460589Y-92399057D02*
X86498684Y-92475247D01*
X86498684Y-92475247D02*
X86498684Y-92894295D01*
X87222494Y-92894295D02*
X87222494Y-92475247D01*
X87222494Y-92475247D02*
X87184399Y-92399057D01*
X87184399Y-92399057D02*
X87108208Y-92360961D01*
X87108208Y-92360961D02*
X86955827Y-92360961D01*
X86955827Y-92360961D02*
X86879637Y-92399057D01*
X87222494Y-92856200D02*
X87146303Y-92894295D01*
X87146303Y-92894295D02*
X86955827Y-92894295D01*
X86955827Y-92894295D02*
X86879637Y-92856200D01*
X86879637Y-92856200D02*
X86841541Y-92780009D01*
X86841541Y-92780009D02*
X86841541Y-92703819D01*
X86841541Y-92703819D02*
X86879637Y-92627628D01*
X86879637Y-92627628D02*
X86955827Y-92589533D01*
X86955827Y-92589533D02*
X87146303Y-92589533D01*
X87146303Y-92589533D02*
X87222494Y-92551438D01*
X87717732Y-92894295D02*
X87641542Y-92856200D01*
X87641542Y-92856200D02*
X87603447Y-92780009D01*
X87603447Y-92780009D02*
X87603447Y-92094295D01*
X89889160Y-90659533D02*
X90498684Y-90659533D01*
X90193922Y-90964295D02*
X90193922Y-90354771D01*
X200366667Y-111012295D02*
X200100000Y-110631342D01*
X199909524Y-111012295D02*
X199909524Y-110212295D01*
X199909524Y-110212295D02*
X200214286Y-110212295D01*
X200214286Y-110212295D02*
X200290476Y-110250390D01*
X200290476Y-110250390D02*
X200328571Y-110288485D01*
X200328571Y-110288485D02*
X200366667Y-110364676D01*
X200366667Y-110364676D02*
X200366667Y-110478961D01*
X200366667Y-110478961D02*
X200328571Y-110555152D01*
X200328571Y-110555152D02*
X200290476Y-110593247D01*
X200290476Y-110593247D02*
X200214286Y-110631342D01*
X200214286Y-110631342D02*
X199909524Y-110631342D01*
X200671428Y-110288485D02*
X200709524Y-110250390D01*
X200709524Y-110250390D02*
X200785714Y-110212295D01*
X200785714Y-110212295D02*
X200976190Y-110212295D01*
X200976190Y-110212295D02*
X201052381Y-110250390D01*
X201052381Y-110250390D02*
X201090476Y-110288485D01*
X201090476Y-110288485D02*
X201128571Y-110364676D01*
X201128571Y-110364676D02*
X201128571Y-110440866D01*
X201128571Y-110440866D02*
X201090476Y-110555152D01*
X201090476Y-110555152D02*
X200633333Y-111012295D01*
X200633333Y-111012295D02*
X201128571Y-111012295D01*
X95585714Y-99862295D02*
X95319047Y-99481342D01*
X95128571Y-99862295D02*
X95128571Y-99062295D01*
X95128571Y-99062295D02*
X95433333Y-99062295D01*
X95433333Y-99062295D02*
X95509523Y-99100390D01*
X95509523Y-99100390D02*
X95547618Y-99138485D01*
X95547618Y-99138485D02*
X95585714Y-99214676D01*
X95585714Y-99214676D02*
X95585714Y-99328961D01*
X95585714Y-99328961D02*
X95547618Y-99405152D01*
X95547618Y-99405152D02*
X95509523Y-99443247D01*
X95509523Y-99443247D02*
X95433333Y-99481342D01*
X95433333Y-99481342D02*
X95128571Y-99481342D01*
X96347618Y-99862295D02*
X95890475Y-99862295D01*
X96119047Y-99862295D02*
X96119047Y-99062295D01*
X96119047Y-99062295D02*
X96042856Y-99176580D01*
X96042856Y-99176580D02*
X95966666Y-99252771D01*
X95966666Y-99252771D02*
X95890475Y-99290866D01*
X97033333Y-99328961D02*
X97033333Y-99862295D01*
X96842857Y-99024200D02*
X96652380Y-99595628D01*
X96652380Y-99595628D02*
X97147619Y-99595628D01*
X85409524Y-96362295D02*
X85409524Y-95562295D01*
X85409524Y-95562295D02*
X85600000Y-95562295D01*
X85600000Y-95562295D02*
X85714286Y-95600390D01*
X85714286Y-95600390D02*
X85790476Y-95676580D01*
X85790476Y-95676580D02*
X85828571Y-95752771D01*
X85828571Y-95752771D02*
X85866667Y-95905152D01*
X85866667Y-95905152D02*
X85866667Y-96019438D01*
X85866667Y-96019438D02*
X85828571Y-96171819D01*
X85828571Y-96171819D02*
X85790476Y-96248009D01*
X85790476Y-96248009D02*
X85714286Y-96324200D01*
X85714286Y-96324200D02*
X85600000Y-96362295D01*
X85600000Y-96362295D02*
X85409524Y-96362295D01*
X86133333Y-95562295D02*
X86666667Y-95562295D01*
X86666667Y-95562295D02*
X86323809Y-96362295D01*
X83289160Y-97944295D02*
X83289160Y-97144295D01*
X83670112Y-97410961D02*
X83670112Y-97944295D01*
X83670112Y-97487152D02*
X83708207Y-97449057D01*
X83708207Y-97449057D02*
X83784397Y-97410961D01*
X83784397Y-97410961D02*
X83898683Y-97410961D01*
X83898683Y-97410961D02*
X83974874Y-97449057D01*
X83974874Y-97449057D02*
X84012969Y-97525247D01*
X84012969Y-97525247D02*
X84012969Y-97944295D01*
X84279636Y-97410961D02*
X84584398Y-97410961D01*
X84393922Y-97144295D02*
X84393922Y-97830009D01*
X84393922Y-97830009D02*
X84432017Y-97906200D01*
X84432017Y-97906200D02*
X84508207Y-97944295D01*
X84508207Y-97944295D02*
X84584398Y-97944295D01*
X85155827Y-97906200D02*
X85079636Y-97944295D01*
X85079636Y-97944295D02*
X84927255Y-97944295D01*
X84927255Y-97944295D02*
X84851065Y-97906200D01*
X84851065Y-97906200D02*
X84812969Y-97830009D01*
X84812969Y-97830009D02*
X84812969Y-97525247D01*
X84812969Y-97525247D02*
X84851065Y-97449057D01*
X84851065Y-97449057D02*
X84927255Y-97410961D01*
X84927255Y-97410961D02*
X85079636Y-97410961D01*
X85079636Y-97410961D02*
X85155827Y-97449057D01*
X85155827Y-97449057D02*
X85193922Y-97525247D01*
X85193922Y-97525247D02*
X85193922Y-97601438D01*
X85193922Y-97601438D02*
X84812969Y-97677628D01*
X85536779Y-97944295D02*
X85536779Y-97410961D01*
X85536779Y-97563342D02*
X85574874Y-97487152D01*
X85574874Y-97487152D02*
X85612969Y-97449057D01*
X85612969Y-97449057D02*
X85689160Y-97410961D01*
X85689160Y-97410961D02*
X85765350Y-97410961D01*
X86146302Y-97944295D02*
X86070112Y-97906200D01*
X86070112Y-97906200D02*
X86032017Y-97830009D01*
X86032017Y-97830009D02*
X86032017Y-97144295D01*
X86793922Y-97944295D02*
X86793922Y-97525247D01*
X86793922Y-97525247D02*
X86755827Y-97449057D01*
X86755827Y-97449057D02*
X86679636Y-97410961D01*
X86679636Y-97410961D02*
X86527255Y-97410961D01*
X86527255Y-97410961D02*
X86451065Y-97449057D01*
X86793922Y-97906200D02*
X86717731Y-97944295D01*
X86717731Y-97944295D02*
X86527255Y-97944295D01*
X86527255Y-97944295D02*
X86451065Y-97906200D01*
X86451065Y-97906200D02*
X86412969Y-97830009D01*
X86412969Y-97830009D02*
X86412969Y-97753819D01*
X86412969Y-97753819D02*
X86451065Y-97677628D01*
X86451065Y-97677628D02*
X86527255Y-97639533D01*
X86527255Y-97639533D02*
X86717731Y-97639533D01*
X86717731Y-97639533D02*
X86793922Y-97601438D01*
X87517732Y-97906200D02*
X87441541Y-97944295D01*
X87441541Y-97944295D02*
X87289160Y-97944295D01*
X87289160Y-97944295D02*
X87212970Y-97906200D01*
X87212970Y-97906200D02*
X87174875Y-97868104D01*
X87174875Y-97868104D02*
X87136779Y-97791914D01*
X87136779Y-97791914D02*
X87136779Y-97563342D01*
X87136779Y-97563342D02*
X87174875Y-97487152D01*
X87174875Y-97487152D02*
X87212970Y-97449057D01*
X87212970Y-97449057D02*
X87289160Y-97410961D01*
X87289160Y-97410961D02*
X87441541Y-97410961D01*
X87441541Y-97410961D02*
X87517732Y-97449057D01*
X88165351Y-97906200D02*
X88089160Y-97944295D01*
X88089160Y-97944295D02*
X87936779Y-97944295D01*
X87936779Y-97944295D02*
X87860589Y-97906200D01*
X87860589Y-97906200D02*
X87822493Y-97830009D01*
X87822493Y-97830009D02*
X87822493Y-97525247D01*
X87822493Y-97525247D02*
X87860589Y-97449057D01*
X87860589Y-97449057D02*
X87936779Y-97410961D01*
X87936779Y-97410961D02*
X88089160Y-97410961D01*
X88089160Y-97410961D02*
X88165351Y-97449057D01*
X88165351Y-97449057D02*
X88203446Y-97525247D01*
X88203446Y-97525247D02*
X88203446Y-97601438D01*
X88203446Y-97601438D02*
X87822493Y-97677628D01*
X88889160Y-97944295D02*
X88889160Y-97144295D01*
X88889160Y-97906200D02*
X88812969Y-97944295D01*
X88812969Y-97944295D02*
X88660588Y-97944295D01*
X88660588Y-97944295D02*
X88584398Y-97906200D01*
X88584398Y-97906200D02*
X88546303Y-97868104D01*
X88546303Y-97868104D02*
X88508207Y-97791914D01*
X88508207Y-97791914D02*
X88508207Y-97563342D01*
X88508207Y-97563342D02*
X88546303Y-97487152D01*
X88546303Y-97487152D02*
X88584398Y-97449057D01*
X88584398Y-97449057D02*
X88660588Y-97410961D01*
X88660588Y-97410961D02*
X88812969Y-97410961D01*
X88812969Y-97410961D02*
X88889160Y-97449057D01*
X89889160Y-95639533D02*
X90498684Y-95639533D01*
X90193922Y-95944295D02*
X90193922Y-95334771D01*
%TO.C,MH1*%
X88701351Y-70000000D02*
G75*
G02*
X81298649Y-70000000I-3701351J0D01*
G01*
X81298649Y-70000000D02*
G75*
G02*
X88701351Y-70000000I3701351J0D01*
G01*
%TO.C,MH4*%
X238701351Y-115000000D02*
G75*
G02*
X231298649Y-115000000I-3701351J0D01*
G01*
X231298649Y-115000000D02*
G75*
G02*
X238701351Y-115000000I3701351J0D01*
G01*
%TO.C,C5*%
X204550000Y-101300000D02*
X204550000Y-99800000D01*
X207250000Y-99800000D02*
X204550000Y-99800000D01*
X207250000Y-101300000D02*
X204550000Y-101300000D01*
X207250000Y-101300000D02*
X207250000Y-99800000D01*
%TO.C,R4*%
X208600000Y-108650000D02*
X208600000Y-111350000D01*
X210100000Y-108650000D02*
X208600000Y-108650000D01*
X210100000Y-108650000D02*
X210100000Y-111350000D01*
X210100000Y-111350000D02*
X208600000Y-111350000D01*
%TO.C,D2*%
X213700000Y-104350000D02*
X213700000Y-108550000D01*
X213700000Y-108550000D02*
X215100000Y-108550000D01*
X215100000Y-104350000D02*
X215100000Y-108550000D01*
X215100000Y-104350000D02*
X213700000Y-104350000D01*
X213700000Y-104950000D01*
X215100000Y-104950000D01*
X215100000Y-104350000D01*
G36*
X215100000Y-104350000D02*
G01*
X213700000Y-104350000D01*
X213700000Y-104950000D01*
X215100000Y-104950000D01*
X215100000Y-104350000D01*
G37*
%TO.C,R10*%
X203170000Y-77765000D02*
X204670000Y-77765000D01*
X203170000Y-80465000D02*
X203170000Y-77765000D01*
X203170000Y-80465000D02*
X204670000Y-80465000D01*
X204670000Y-80465000D02*
X204670000Y-77765000D01*
%TO.C,R6*%
X208600000Y-105150000D02*
X208600000Y-107850000D01*
X210100000Y-105150000D02*
X208600000Y-105150000D01*
X210100000Y-105150000D02*
X210100000Y-107850000D01*
X210100000Y-107850000D02*
X208600000Y-107850000D01*
%TO.C,C2*%
X211850000Y-105175000D02*
X213350000Y-105175000D01*
X211850000Y-107875000D02*
X211850000Y-105175000D01*
X211850000Y-107875000D02*
X213350000Y-107875000D01*
X213350000Y-107875000D02*
X213350000Y-105175000D01*
%TO.C,R11*%
X94550000Y-85150000D02*
X94550000Y-86650000D01*
X94550000Y-85150000D02*
X97250000Y-85150000D01*
X94550000Y-86650000D02*
X97250000Y-86650000D01*
X97250000Y-85150000D02*
X97250000Y-86650000D01*
%TO.C,MH3*%
X238701351Y-70000000D02*
G75*
G02*
X231298649Y-70000000I-3701351J0D01*
G01*
X231298649Y-70000000D02*
G75*
G02*
X238701351Y-70000000I3701351J0D01*
G01*
%TO.C,D5*%
X90797057Y-88449999D02*
G75*
G02*
X90797057Y-86050001I1200000J1199999D01*
G01*
X93199999Y-86050001D02*
G75*
G02*
X93199999Y-88449999I-1200000J-1199999D01*
G01*
%TO.C,R9*%
X209385000Y-79365000D02*
X209385000Y-77865000D01*
X212085000Y-77865000D02*
X209385000Y-77865000D01*
X212085000Y-79365000D02*
X209385000Y-79365000D01*
X212085000Y-79365000D02*
X212085000Y-77865000D01*
%TO.C,D10*%
X90797057Y-81199999D02*
G75*
G02*
X90797057Y-78800001I1200000J1199999D01*
G01*
X93199999Y-78800001D02*
G75*
G02*
X93199999Y-81199999I-1200000J-1199999D01*
G01*
%TO.C,C6*%
X170500000Y-74900000D02*
X170500000Y-76400000D01*
X170500000Y-74900000D02*
X173200000Y-74900000D01*
X170500000Y-76400000D02*
X173200000Y-76400000D01*
X173200000Y-74900000D02*
X173200000Y-76400000D01*
%TO.C,D4*%
X208797057Y-84199999D02*
G75*
G02*
X208797057Y-81800001I1200000J1199999D01*
G01*
X211199999Y-81800001D02*
G75*
G02*
X211199999Y-84199999I-1200000J-1199999D01*
G01*
%TO.C,R16*%
X94450000Y-77750000D02*
X94450000Y-79250000D01*
X94450000Y-77750000D02*
X97150000Y-77750000D01*
X94450000Y-79250000D02*
X97150000Y-79250000D01*
X97150000Y-77750000D02*
X97150000Y-79250000D01*
%TO.C,R13*%
X94750000Y-95450000D02*
X94750000Y-96950000D01*
X94750000Y-95450000D02*
X97450000Y-95450000D01*
X94750000Y-96950000D02*
X97450000Y-96950000D01*
X97450000Y-95450000D02*
X97450000Y-96950000D01*
%TO.C,C4*%
X200000000Y-81450000D02*
X201500000Y-81450000D01*
X200000000Y-84150000D02*
X200000000Y-81450000D01*
X200000000Y-84150000D02*
X201500000Y-84150000D01*
X201500000Y-84150000D02*
X201500000Y-81450000D01*
%TO.C,R7*%
X199950000Y-77800000D02*
X201450000Y-77800000D01*
X199950000Y-80500000D02*
X199950000Y-77800000D01*
X199950000Y-80500000D02*
X201450000Y-80500000D01*
X201450000Y-80500000D02*
X201450000Y-77800000D01*
%TO.C,D8*%
X90797057Y-103341167D02*
G75*
G02*
X90797057Y-100941169I1200000J1199999D01*
G01*
X93199999Y-100941169D02*
G75*
G02*
X93199999Y-103341167I-1200000J-1199999D01*
G01*
%TO.C,C3*%
X204850000Y-105100000D02*
X206350000Y-105100000D01*
X204850000Y-107800000D02*
X204850000Y-105100000D01*
X204850000Y-107800000D02*
X206350000Y-107800000D01*
X206350000Y-107800000D02*
X206350000Y-105100000D01*
%TO.C,R12*%
X94700000Y-90250000D02*
X94700000Y-91750000D01*
X94700000Y-90250000D02*
X97400000Y-90250000D01*
X94700000Y-91750000D02*
X97400000Y-91750000D01*
X97400000Y-90250000D02*
X97400000Y-91750000D01*
%TO.C,R15*%
X94850000Y-104950000D02*
X94850000Y-106450000D01*
X94850000Y-104950000D02*
X97550000Y-104950000D01*
X94850000Y-106450000D02*
X97550000Y-106450000D01*
X97550000Y-104950000D02*
X97550000Y-106450000D01*
%TO.C,R8*%
X205985000Y-79415000D02*
X205985000Y-77915000D01*
X208685000Y-77915000D02*
X205985000Y-77915000D01*
X208685000Y-79415000D02*
X205985000Y-79415000D01*
X208685000Y-79415000D02*
X208685000Y-77915000D01*
%TO.C,U2*%
X206935000Y-75265000D02*
X206935000Y-71265000D01*
X212135000Y-75265000D02*
X212135000Y-71265000D01*
X211635000Y-72365000D02*
G75*
G02*
X211235000Y-72365000I-200000J0D01*
G01*
X211235000Y-72365000D02*
G75*
G02*
X211635000Y-72365000I200000J0D01*
G01*
%TO.C,SW2*%
X218750000Y-76750000D02*
X231250000Y-76750000D01*
X218750000Y-79000000D02*
X218750000Y-76750000D01*
X218750000Y-82000000D02*
X218750000Y-84000000D01*
X218750000Y-89250000D02*
X218750000Y-87000000D01*
X218750000Y-89250000D02*
X231250000Y-89250000D01*
X231250000Y-79000000D02*
X231250000Y-76750000D01*
X231250000Y-82000000D02*
X231250000Y-84000000D01*
X231250000Y-89250000D02*
X231250000Y-87000000D01*
%TO.C,R1*%
X201600000Y-105000000D02*
X201600000Y-107700000D01*
X203100000Y-105000000D02*
X201600000Y-105000000D01*
X203100000Y-105000000D02*
X203100000Y-107700000D01*
X203100000Y-107700000D02*
X201600000Y-107700000D01*
%TO.C,D3*%
X206800000Y-104350000D02*
X206800000Y-108550000D01*
X206800000Y-108550000D02*
X208200000Y-108550000D01*
X208200000Y-104350000D02*
X208200000Y-108550000D01*
X208200000Y-104350000D02*
X206800000Y-104350000D01*
X206800000Y-104950000D01*
X208200000Y-104950000D01*
X208200000Y-104350000D01*
G36*
X208200000Y-104350000D02*
G01*
X206800000Y-104350000D01*
X206800000Y-104950000D01*
X208200000Y-104950000D01*
X208200000Y-104350000D01*
G37*
%TO.C,D9*%
X90797057Y-108199999D02*
G75*
G02*
X90797057Y-105800001I1200000J1199999D01*
G01*
X93199999Y-105800001D02*
G75*
G02*
X93199999Y-108199999I-1200000J-1199999D01*
G01*
%TO.C,D1*%
X199750000Y-104300000D02*
X199750000Y-108500000D01*
X199750000Y-108500000D02*
X201150000Y-108500000D01*
X201150000Y-104300000D02*
X201150000Y-108500000D01*
X201150000Y-104300000D02*
X199750000Y-104300000D01*
X199750000Y-104900000D01*
X201150000Y-104900000D01*
X201150000Y-104300000D01*
G36*
X201150000Y-104300000D02*
G01*
X199750000Y-104300000D01*
X199750000Y-104900000D01*
X201150000Y-104900000D01*
X201150000Y-104300000D01*
G37*
%TO.C,C1*%
X197900000Y-105000000D02*
X199400000Y-105000000D01*
X197900000Y-107700000D02*
X197900000Y-105000000D01*
X197900000Y-107700000D02*
X199400000Y-107700000D01*
X199400000Y-107700000D02*
X199400000Y-105000000D01*
%TO.C,DS1*%
X105000000Y-77250000D02*
X105000000Y-108750000D01*
X105000000Y-77250000D02*
X197000000Y-77250000D01*
X105000000Y-108750000D02*
X197000000Y-108750000D01*
X114790000Y-81590000D02*
X114790000Y-104410000D01*
X114790000Y-81590000D02*
X187210000Y-81590000D01*
X187210000Y-81590000D02*
X187210000Y-104410000D01*
X187210000Y-104410000D02*
X114790000Y-104410000D01*
X197000000Y-77250000D02*
X197000000Y-108750000D01*
%TO.C,R3*%
X215650000Y-108600000D02*
X215650000Y-111300000D01*
X217150000Y-108600000D02*
X215650000Y-108600000D01*
X217150000Y-108600000D02*
X217150000Y-111300000D01*
X217150000Y-111300000D02*
X215650000Y-111300000D01*
%TO.C,C7*%
X212750000Y-74650000D02*
X214250000Y-74650000D01*
X212750000Y-77350000D02*
X212750000Y-74650000D01*
X212750000Y-77350000D02*
X214250000Y-77350000D01*
X214250000Y-77350000D02*
X214250000Y-74650000D01*
%TO.C,SW1*%
X218750000Y-93300000D02*
X218750000Y-98200000D01*
X218750000Y-93300000D02*
X221000000Y-93300000D01*
X218750000Y-101800000D02*
X218750000Y-106700000D01*
X218750000Y-106700000D02*
X221100000Y-106700000D01*
X223875000Y-93300000D02*
X226125000Y-93300000D01*
X228900000Y-106700000D02*
X231250000Y-106700000D01*
X229000000Y-93300000D02*
X231250000Y-93300000D01*
X231250000Y-93300000D02*
X231250000Y-98200000D01*
X231250000Y-101800000D02*
X231250000Y-106700000D01*
%TO.C,MH2*%
X88701351Y-115000000D02*
G75*
G02*
X81298649Y-115000000I-3701351J0D01*
G01*
X81298649Y-115000000D02*
G75*
G02*
X88701351Y-115000000I3701351J0D01*
G01*
%TO.C,U1*%
X211400000Y-90300000D02*
X207600000Y-90300000D01*
X211400000Y-99300000D02*
X207600000Y-99300000D01*
X210800000Y-98600000D02*
G75*
G02*
X210400000Y-98600000I-200000J0D01*
G01*
X210400000Y-98600000D02*
G75*
G02*
X210800000Y-98600000I200000J0D01*
G01*
%TO.C,R5*%
X215600000Y-105200000D02*
X215600000Y-107900000D01*
X217100000Y-105200000D02*
X215600000Y-105200000D01*
X217100000Y-105200000D02*
X217100000Y-107900000D01*
X217100000Y-107900000D02*
X215600000Y-107900000D01*
%TO.C,D6*%
X90797057Y-93469999D02*
G75*
G02*
X90797057Y-91070001I1200000J1199999D01*
G01*
X93199999Y-91070001D02*
G75*
G02*
X93199999Y-93469999I-1200000J-1199999D01*
G01*
%TO.C,R2*%
X201600000Y-108550000D02*
X203100000Y-108550000D01*
X201600000Y-111250000D02*
X201600000Y-108550000D01*
X201600000Y-111250000D02*
X203100000Y-111250000D01*
X203100000Y-111250000D02*
X203100000Y-108550000D01*
%TO.C,R14*%
X94750000Y-100150000D02*
X94750000Y-101650000D01*
X94750000Y-100150000D02*
X97450000Y-100150000D01*
X94750000Y-101650000D02*
X97450000Y-101650000D01*
X97450000Y-100150000D02*
X97450000Y-101650000D01*
%TO.C,D7*%
X90797057Y-98449999D02*
G75*
G02*
X90797057Y-96050001I1200000J1199999D01*
G01*
X93199999Y-96050001D02*
G75*
G02*
X93199999Y-98449999I-1200000J-1199999D01*
G01*
%TD*%
M02*
