%TF.GenerationSoftware,KiCad,Pcbnew,8.0.0-8.0.0-1~ubuntu23.10.1*%
%TF.CreationDate,2024-02-24T12:58:59+11:00*%
%TF.ProjectId,tbc_ui,7462635f-7569-42e6-9b69-6361645f7063,rev?*%
%TF.SameCoordinates,Original*%
%TF.FileFunction,Soldermask,Bot*%
%TF.FilePolarity,Negative*%
%FSLAX46Y46*%
G04 Gerber Fmt 4.6, Leading zero omitted, Abs format (unit mm)*
G04 Created by KiCad (PCBNEW 8.0.0-8.0.0-1~ubuntu23.10.1) date 2024-02-24 12:58:59*
%MOMM*%
%LPD*%
G01*
G04 APERTURE LIST*
%ADD10C,3.200000*%
%ADD11C,1.800000*%
%ADD12C,2.500000*%
%ADD13C,2.000000*%
G04 APERTURE END LIST*
D10*
%TO.C,MH1*%
X85000000Y-70000000D03*
%TD*%
%TO.C,MH4*%
X235000000Y-115000000D03*
%TD*%
%TO.C,MH3*%
X235000000Y-70000000D03*
%TD*%
D11*
%TO.C,D5*%
X92000000Y-88520000D03*
X92000000Y-85980000D03*
%TD*%
%TO.C,D10*%
X92000000Y-81270000D03*
X92000000Y-78730000D03*
%TD*%
%TO.C,D4*%
X210000000Y-84270000D03*
X210000000Y-81730000D03*
%TD*%
%TO.C,D8*%
X92000000Y-103411168D03*
X92000000Y-100871168D03*
%TD*%
D12*
%TO.C,SW2*%
X218750000Y-85500000D03*
X231250000Y-85500000D03*
X218750000Y-80500000D03*
X231250000Y-80500000D03*
%TD*%
D11*
%TO.C,D9*%
X92000000Y-108270000D03*
X92000000Y-105730000D03*
%TD*%
%TO.C,DS1*%
X175130000Y-78750000D03*
X172590000Y-78750000D03*
X170050000Y-78750000D03*
X167510000Y-78750000D03*
X164970000Y-78750000D03*
X162430000Y-78750000D03*
X159890000Y-78750000D03*
X157350000Y-78750000D03*
X154810000Y-78750000D03*
X152270000Y-78750000D03*
X149730000Y-78750000D03*
X147190000Y-78750000D03*
X144650000Y-78750000D03*
X142110000Y-78750000D03*
X139570000Y-78750000D03*
X137030000Y-78750000D03*
X134490000Y-78750000D03*
X131950000Y-78750000D03*
X129410000Y-78750000D03*
X126870000Y-78750000D03*
%TD*%
D13*
%TO.C,SW1*%
X222500000Y-107500000D03*
X227500000Y-107500000D03*
X225000000Y-107500000D03*
X222500000Y-93000000D03*
X227500000Y-93000000D03*
%TD*%
D10*
%TO.C,MH2*%
X85000000Y-115000000D03*
%TD*%
D11*
%TO.C,D6*%
X92000000Y-93540000D03*
X92000000Y-91000000D03*
%TD*%
%TO.C,D7*%
X92000000Y-98520000D03*
X92000000Y-95980000D03*
%TD*%
%TO.C,J1*%
X128240000Y-72270000D03*
X128240000Y-69730000D03*
X125700000Y-72270000D03*
X125700000Y-69730000D03*
X123160000Y-72270000D03*
X123160000Y-69730000D03*
X120620000Y-72270000D03*
X120620000Y-69730000D03*
X118080000Y-72270000D03*
X118080000Y-69730000D03*
X115540000Y-72270000D03*
X115540000Y-69730000D03*
X113000000Y-72270000D03*
X113000000Y-69730000D03*
X110460000Y-72270000D03*
X110460000Y-69730000D03*
X107920000Y-72270000D03*
X107920000Y-69730000D03*
X105380000Y-72270000D03*
X105380000Y-69730000D03*
X102840000Y-72270000D03*
X102840000Y-69730000D03*
X100300000Y-72270000D03*
X100300000Y-69730000D03*
X97760000Y-72270000D03*
X97760000Y-69730000D03*
%TD*%
M02*
