%TF.GenerationSoftware,KiCad,Pcbnew,8.0.0-8.0.0-1~ubuntu23.10.1*%
%TF.CreationDate,2024-02-24T12:58:59+11:00*%
%TF.ProjectId,tbc_ui,7462635f-7569-42e6-9b69-6361645f7063,rev?*%
%TF.SameCoordinates,Original*%
%TF.FileFunction,Legend,Bot*%
%TF.FilePolarity,Positive*%
%FSLAX46Y46*%
G04 Gerber Fmt 4.6, Leading zero omitted, Abs format (unit mm)*
G04 Created by KiCad (PCBNEW 8.0.0-8.0.0-1~ubuntu23.10.1) date 2024-02-24 12:58:59*
%MOMM*%
%LPD*%
G01*
G04 APERTURE LIST*
%ADD10C,0.150000*%
%ADD11C,0.200000*%
G04 APERTURE END LIST*
D10*
X135266666Y-66292295D02*
X135266666Y-66863723D01*
X135266666Y-66863723D02*
X135304761Y-66978009D01*
X135304761Y-66978009D02*
X135380952Y-67054200D01*
X135380952Y-67054200D02*
X135495237Y-67092295D01*
X135495237Y-67092295D02*
X135571428Y-67092295D01*
X134466666Y-67092295D02*
X134923809Y-67092295D01*
X134695237Y-67092295D02*
X134695237Y-66292295D01*
X134695237Y-66292295D02*
X134771428Y-66406580D01*
X134771428Y-66406580D02*
X134847618Y-66482771D01*
X134847618Y-66482771D02*
X134923809Y-66520866D01*
%TO.C,J1*%
X92885000Y-66400000D02*
X92885000Y-75600000D01*
X92885000Y-75600000D02*
X133115000Y-75600000D01*
X133115000Y-66400000D02*
X92885000Y-66400000D01*
X133115000Y-66400000D02*
X133115000Y-75600000D01*
X97030000Y-75600000D02*
X101030000Y-75600000D01*
X101030000Y-74300000D01*
X97030000Y-74300000D01*
X97030000Y-75600000D01*
G36*
X97030000Y-75600000D02*
G01*
X101030000Y-75600000D01*
X101030000Y-74300000D01*
X97030000Y-74300000D01*
X97030000Y-75600000D01*
G37*
X122430000Y-75600000D02*
X126430000Y-75600000D01*
X126430000Y-74300000D01*
X122430000Y-74300000D01*
X122430000Y-75600000D01*
G36*
X122430000Y-75600000D02*
G01*
X126430000Y-75600000D01*
X126430000Y-74300000D01*
X122430000Y-74300000D01*
X122430000Y-75600000D01*
G37*
D11*
X128491848Y-74403600D02*
G75*
G02*
X127880152Y-74403600I-305848J0D01*
G01*
X127880152Y-74403600D02*
G75*
G02*
X128491848Y-74403600I305848J0D01*
G01*
%TD*%
M02*
