%TF.GenerationSoftware,KiCad,Pcbnew,8.0.0-8.0.0-1~ubuntu23.10.1*%
%TF.CreationDate,2024-02-24T12:58:59+11:00*%
%TF.ProjectId,tbc_ui,7462635f-7569-42e6-9b69-6361645f7063,rev?*%
%TF.SameCoordinates,Original*%
%TF.FileFunction,Copper,L1,Top*%
%TF.FilePolarity,Positive*%
%FSLAX46Y46*%
G04 Gerber Fmt 4.6, Leading zero omitted, Abs format (unit mm)*
G04 Created by KiCad (PCBNEW 8.0.0-8.0.0-1~ubuntu23.10.1) date 2024-02-24 12:58:59*
%MOMM*%
%LPD*%
G01*
G04 APERTURE LIST*
%TA.AperFunction,SMDPad,CuDef*%
%ADD10R,0.600000X0.900000*%
%TD*%
%TA.AperFunction,SMDPad,CuDef*%
%ADD11R,0.900000X0.600000*%
%TD*%
%TA.AperFunction,SMDPad,CuDef*%
%ADD12R,0.700000X0.850000*%
%TD*%
%TA.AperFunction,ComponentPad*%
%ADD13C,1.800000*%
%TD*%
%TA.AperFunction,SMDPad,CuDef*%
%ADD14R,0.600000X2.200000*%
%TD*%
%TA.AperFunction,ComponentPad*%
%ADD15C,2.500000*%
%TD*%
%TA.AperFunction,ComponentPad*%
%ADD16C,2.000000*%
%TD*%
%TA.AperFunction,SMDPad,CuDef*%
%ADD17R,2.000000X0.700000*%
%TD*%
%TA.AperFunction,ViaPad*%
%ADD18C,0.600000*%
%TD*%
%TA.AperFunction,Conductor*%
%ADD19C,0.300000*%
%TD*%
%TA.AperFunction,Conductor*%
%ADD20C,0.500000*%
%TD*%
%TA.AperFunction,Conductor*%
%ADD21C,0.800000*%
%TD*%
G04 APERTURE END LIST*
D10*
%TO.P,C5,1*%
%TO.N,+3V3*%
X206650000Y-100550000D03*
%TO.P,C5,2*%
%TO.N,GND*%
X205150000Y-100550000D03*
%TD*%
D11*
%TO.P,R4,1*%
%TO.N,Net-(D3-A)*%
X209350000Y-109250000D03*
%TO.P,R4,2*%
%TO.N,+3V3*%
X209350000Y-110750000D03*
%TD*%
D12*
%TO.P,D2,1,K*%
%TO.N,Net-(D2-K)*%
X214400000Y-105625000D03*
%TO.P,D2,2,A*%
%TO.N,Net-(D2-A)*%
X214400000Y-107875000D03*
%TD*%
D11*
%TO.P,R10,1*%
%TO.N,Net-(D4-Anode)*%
X203920000Y-79865000D03*
%TO.P,R10,2*%
%TO.N,/FREEZE*%
X203920000Y-78365000D03*
%TD*%
%TO.P,R6,1*%
%TO.N,Net-(D3-K)*%
X209350000Y-105750000D03*
%TO.P,R6,2*%
%TO.N,Net-(D3-A)*%
X209350000Y-107250000D03*
%TD*%
%TO.P,C2,1*%
%TO.N,GND*%
X212600000Y-107275000D03*
%TO.P,C2,2*%
%TO.N,Net-(D2-K)*%
X212600000Y-105775000D03*
%TD*%
D10*
%TO.P,R11,1*%
%TO.N,Net-(D5-Anode)*%
X95150000Y-85900000D03*
%TO.P,R11,2*%
%TO.N,/D_READY*%
X96650000Y-85900000D03*
%TD*%
D13*
%TO.P,D5,1,Cathode*%
%TO.N,GND*%
X92000000Y-88520000D03*
%TO.P,D5,2,Anode*%
%TO.N,Net-(D5-Anode)*%
X92000000Y-85980000D03*
%TD*%
D10*
%TO.P,R9,1*%
%TO.N,GND*%
X211485000Y-78615000D03*
%TO.P,R9,2*%
%TO.N,Net-(U2-THR)*%
X209985000Y-78615000D03*
%TD*%
D13*
%TO.P,D10,1,Cathode*%
%TO.N,GND*%
X92000000Y-81270000D03*
%TO.P,D10,2,Anode*%
%TO.N,Net-(D10-Anode)*%
X92000000Y-78730000D03*
%TD*%
D10*
%TO.P,C6,1*%
%TO.N,GND*%
X171100000Y-75650000D03*
%TO.P,C6,2*%
%TO.N,+3V3*%
X172600000Y-75650000D03*
%TD*%
D13*
%TO.P,D4,1,Cathode*%
%TO.N,GND*%
X210000000Y-84270000D03*
%TO.P,D4,2,Anode*%
%TO.N,Net-(D4-Anode)*%
X210000000Y-81730000D03*
%TD*%
D10*
%TO.P,R16,1*%
%TO.N,Net-(D10-Anode)*%
X95050000Y-78500000D03*
%TO.P,R16,2*%
%TO.N,+3V3*%
X96550000Y-78500000D03*
%TD*%
%TO.P,R13,1*%
%TO.N,Net-(D7-Anode)*%
X95350000Y-96200000D03*
%TO.P,R13,2*%
%TO.N,/D_INTERLACED*%
X96850000Y-96200000D03*
%TD*%
D11*
%TO.P,C4,1*%
%TO.N,GND*%
X200750000Y-83550000D03*
%TO.P,C4,2*%
%TO.N,Net-(C4-Pad2)*%
X200750000Y-82050000D03*
%TD*%
%TO.P,R7,1*%
%TO.N,Net-(C4-Pad2)*%
X200700000Y-79900000D03*
%TO.P,R7,2*%
%TO.N,/FREEZE*%
X200700000Y-78400000D03*
%TD*%
D13*
%TO.P,D8,1,Cathode*%
%TO.N,GND*%
X92000000Y-103411168D03*
%TO.P,D8,2,Anode*%
%TO.N,Net-(D8-Anode)*%
X92000000Y-100871168D03*
%TD*%
D11*
%TO.P,C3,1*%
%TO.N,GND*%
X205600000Y-107200000D03*
%TO.P,C3,2*%
%TO.N,Net-(D3-K)*%
X205600000Y-105700000D03*
%TD*%
D10*
%TO.P,R12,1*%
%TO.N,Net-(D6-Anode)*%
X95300000Y-91000000D03*
%TO.P,R12,2*%
%TO.N,/D_SIGNAL*%
X96800000Y-91000000D03*
%TD*%
%TO.P,R15,1*%
%TO.N,Net-(D9-Anode)*%
X95450000Y-105700000D03*
%TO.P,R15,2*%
%TO.N,/D_60HZ*%
X96950000Y-105700000D03*
%TD*%
%TO.P,R8,1*%
%TO.N,Net-(U2-THR)*%
X208085000Y-78665000D03*
%TO.P,R8,2*%
%TO.N,+5V*%
X206585000Y-78665000D03*
%TD*%
D14*
%TO.P,U2,1,GND*%
%TO.N,GND*%
X211440000Y-70665000D03*
%TO.P,U2,2,~{TRIG}*%
%TO.N,Net-(U2-THR)*%
X210170000Y-70665000D03*
%TO.P,U2,3,OUT*%
%TO.N,/FREEZE*%
X208900000Y-70665000D03*
%TO.P,U2,4,~{RESET}*%
%TO.N,+5V*%
X207630000Y-70665000D03*
%TO.P,U2,5,CV*%
%TO.N,unconnected-(U2-CV-Pad5)*%
X207630000Y-75865000D03*
%TO.P,U2,6,THR*%
%TO.N,Net-(U2-THR)*%
X208900000Y-75865000D03*
%TO.P,U2,7,DIS*%
%TO.N,unconnected-(U2-DIS-Pad7)*%
X210170000Y-75865000D03*
%TO.P,U2,8,VDD*%
%TO.N,+5V*%
X211440000Y-75865000D03*
%TD*%
D15*
%TO.P,SW2,1,1*%
%TO.N,Net-(C4-Pad2)*%
X218750000Y-85500000D03*
%TO.P,SW2,2,2*%
X231250000Y-85500000D03*
%TO.P,SW2,3,3*%
%TO.N,Net-(U2-THR)*%
X218750000Y-80500000D03*
%TO.P,SW2,4,4*%
X231250000Y-80500000D03*
%TD*%
D11*
%TO.P,R1,1*%
%TO.N,Net-(D1-K)*%
X202350000Y-105600000D03*
%TO.P,R1,2*%
%TO.N,Net-(D1-A)*%
X202350000Y-107100000D03*
%TD*%
D12*
%TO.P,D3,1,K*%
%TO.N,Net-(D3-K)*%
X207500000Y-105625000D03*
%TO.P,D3,2,A*%
%TO.N,Net-(D3-A)*%
X207500000Y-107875000D03*
%TD*%
D13*
%TO.P,D9,1,Cathode*%
%TO.N,GND*%
X92000000Y-108270000D03*
%TO.P,D9,2,Anode*%
%TO.N,Net-(D9-Anode)*%
X92000000Y-105730000D03*
%TD*%
D12*
%TO.P,D1,1,K*%
%TO.N,Net-(D1-K)*%
X200450000Y-105575000D03*
%TO.P,D1,2,A*%
%TO.N,Net-(D1-A)*%
X200450000Y-107825000D03*
%TD*%
D11*
%TO.P,C1,1*%
%TO.N,GND*%
X198650000Y-107100000D03*
%TO.P,C1,2*%
%TO.N,Net-(D1-K)*%
X198650000Y-105600000D03*
%TD*%
D13*
%TO.P,DS1,1,VSS*%
%TO.N,GND*%
X175130000Y-78750000D03*
%TO.P,DS1,2,VDD*%
%TO.N,+3V3*%
X172590000Y-78750000D03*
%TO.P,DS1,3,REG_VDD*%
%TO.N,GND*%
X170050000Y-78750000D03*
%TO.P,DS1,4,SA0*%
X167510000Y-78750000D03*
%TO.P,DS1,5,NC*%
X164970000Y-78750000D03*
%TO.P,DS1,6,NC*%
X162430000Y-78750000D03*
%TO.P,DS1,7,SCL*%
%TO.N,/SCL*%
X159890000Y-78750000D03*
%TO.P,DS1,8,SDA_IN*%
%TO.N,/SDA*%
X157350000Y-78750000D03*
%TO.P,DS1,9,SDA_OUT*%
X154810000Y-78750000D03*
%TO.P,DS1,10,NC*%
%TO.N,GND*%
X152270000Y-78750000D03*
%TO.P,DS1,11,NC*%
X149730000Y-78750000D03*
%TO.P,DS1,12,NC*%
X147190000Y-78750000D03*
%TO.P,DS1,13,NC*%
X144650000Y-78750000D03*
%TO.P,DS1,14,NC*%
X142110000Y-78750000D03*
%TO.P,DS1,15,NC*%
X139570000Y-78750000D03*
%TO.P,DS1,16,~{RES}*%
%TO.N,+3V3*%
X137030000Y-78750000D03*
%TO.P,DS1,17,BS0*%
%TO.N,GND*%
X134490000Y-78750000D03*
%TO.P,DS1,18,BS1*%
%TO.N,+3V3*%
X131950000Y-78750000D03*
%TO.P,DS1,19,BS2*%
%TO.N,GND*%
X129410000Y-78750000D03*
%TO.P,DS1,20,VSS*%
X126870000Y-78750000D03*
%TD*%
D11*
%TO.P,R3,1*%
%TO.N,Net-(D2-A)*%
X216400000Y-109200000D03*
%TO.P,R3,2*%
%TO.N,+3V3*%
X216400000Y-110700000D03*
%TD*%
%TO.P,C7,1*%
%TO.N,GND*%
X213500000Y-76750000D03*
%TO.P,C7,2*%
%TO.N,+5V*%
X213500000Y-75250000D03*
%TD*%
D16*
%TO.P,SW1,A,A*%
%TO.N,Net-(D1-A)*%
X222500000Y-107500000D03*
%TO.P,SW1,B,B*%
%TO.N,Net-(D3-A)*%
X227500000Y-107500000D03*
%TO.P,SW1,C,C*%
%TO.N,GND*%
X225000000Y-107500000D03*
%TO.P,SW1,S1,S1*%
X222500000Y-93000000D03*
%TO.P,SW1,S2,S2*%
%TO.N,Net-(D2-A)*%
X227500000Y-93000000D03*
%TD*%
D17*
%TO.P,U1,1,1A*%
%TO.N,Net-(D2-K)*%
X212200000Y-98610000D03*
%TO.P,U1,2,1Y*%
%TO.N,/RENC_SW*%
X212200000Y-97340000D03*
%TO.P,U1,3,2A*%
%TO.N,Net-(D3-K)*%
X212200000Y-96070000D03*
%TO.P,U1,4,2Y*%
%TO.N,/RENC_B*%
X212200000Y-94800000D03*
%TO.P,U1,5,3A*%
%TO.N,Net-(D1-K)*%
X212200000Y-93530000D03*
%TO.P,U1,6,3Y*%
%TO.N,/RENC_A*%
X212200000Y-92260000D03*
%TO.P,U1,7,GND*%
%TO.N,GND*%
X212200000Y-90990000D03*
%TO.P,U1,8,4Y*%
%TO.N,unconnected-(U1-4Y-Pad8)*%
X206800000Y-90990000D03*
%TO.P,U1,9,4A*%
%TO.N,GND*%
X206800000Y-92260000D03*
%TO.P,U1,10,5Y*%
%TO.N,unconnected-(U1-5Y-Pad10)*%
X206800000Y-93530000D03*
%TO.P,U1,11,5A*%
%TO.N,GND*%
X206800000Y-94800000D03*
%TO.P,U1,12,6Y*%
%TO.N,unconnected-(U1-6Y-Pad12)*%
X206800000Y-96070000D03*
%TO.P,U1,13,6A*%
%TO.N,GND*%
X206800000Y-97340000D03*
%TO.P,U1,14,VCC*%
%TO.N,+3V3*%
X206800000Y-98610000D03*
%TD*%
D11*
%TO.P,R5,1*%
%TO.N,Net-(D2-K)*%
X216350000Y-105800000D03*
%TO.P,R5,2*%
%TO.N,Net-(D2-A)*%
X216350000Y-107300000D03*
%TD*%
D13*
%TO.P,D6,1,Cathode*%
%TO.N,GND*%
X92000000Y-93540000D03*
%TO.P,D6,2,Anode*%
%TO.N,Net-(D6-Anode)*%
X92000000Y-91000000D03*
%TD*%
D11*
%TO.P,R2,1*%
%TO.N,+3V3*%
X202350000Y-110650000D03*
%TO.P,R2,2*%
%TO.N,Net-(D1-A)*%
X202350000Y-109150000D03*
%TD*%
D10*
%TO.P,R14,1*%
%TO.N,Net-(D8-Anode)*%
X95350000Y-100900000D03*
%TO.P,R14,2*%
%TO.N,/D_50HZ*%
X96850000Y-100900000D03*
%TD*%
D13*
%TO.P,D7,1,Cathode*%
%TO.N,GND*%
X92000000Y-98520000D03*
%TO.P,D7,2,Anode*%
%TO.N,Net-(D7-Anode)*%
X92000000Y-95980000D03*
%TD*%
%TO.P,J1,1,1*%
%TO.N,unconnected-(J1-Pad1)*%
X128240000Y-72270000D03*
%TO.P,J1,2,2*%
%TO.N,unconnected-(J1-Pad2)*%
X128240000Y-69730000D03*
%TO.P,J1,3,3*%
%TO.N,unconnected-(J1-Pad3)*%
X125700000Y-72270000D03*
%TO.P,J1,4,4*%
%TO.N,unconnected-(J1-Pad4)*%
X125700000Y-69730000D03*
%TO.P,J1,5,5*%
%TO.N,unconnected-(J1-Pad5)*%
X123160000Y-72270000D03*
%TO.P,J1,6,6*%
%TO.N,unconnected-(J1-Pad6)*%
X123160000Y-69730000D03*
%TO.P,J1,7,7*%
%TO.N,unconnected-(J1-Pad7)*%
X120620000Y-72270000D03*
%TO.P,J1,8,8*%
%TO.N,/RENC_A*%
X120620000Y-69730000D03*
%TO.P,J1,9,9*%
%TO.N,/RENC_B*%
X118080000Y-72270000D03*
%TO.P,J1,10,10*%
%TO.N,/RENC_SW*%
X118080000Y-69730000D03*
%TO.P,J1,11,11*%
%TO.N,unconnected-(J1-Pad11)*%
X115540000Y-72270000D03*
%TO.P,J1,12,12*%
%TO.N,unconnected-(J1-Pad12)*%
X115540000Y-69730000D03*
%TO.P,J1,13,13*%
%TO.N,unconnected-(J1-Pad13)*%
X113000000Y-72270000D03*
%TO.P,J1,14,14*%
%TO.N,/D_READY*%
X113000000Y-69730000D03*
%TO.P,J1,15,15*%
%TO.N,/D_SIGNAL*%
X110460000Y-72270000D03*
%TO.P,J1,16,16*%
%TO.N,/D_INTERLACED*%
X110460000Y-69730000D03*
%TO.P,J1,17,17*%
%TO.N,/D_50HZ*%
X107920000Y-72270000D03*
%TO.P,J1,18,18*%
%TO.N,/D_60HZ*%
X107920000Y-69730000D03*
%TO.P,J1,19,19*%
%TO.N,/SDA*%
X105380000Y-72270000D03*
%TO.P,J1,20,20*%
%TO.N,/SCL*%
X105380000Y-69730000D03*
%TO.P,J1,21,21*%
%TO.N,/FREEZE*%
X102840000Y-72270000D03*
%TO.P,J1,22,22*%
%TO.N,+5V*%
X102840000Y-69730000D03*
%TO.P,J1,23,23*%
%TO.N,GND*%
X100300000Y-72270000D03*
%TO.P,J1,24,24*%
X100300000Y-69730000D03*
%TO.P,J1,25,25*%
%TO.N,+3V3*%
X97760000Y-72270000D03*
%TO.P,J1,26,26*%
X97760000Y-69730000D03*
%TD*%
D18*
%TO.N,GND*%
X198650000Y-108225000D03*
X212535000Y-78615000D03*
X208500000Y-97350000D03*
X208450000Y-94850000D03*
X212150000Y-89850000D03*
X205650000Y-108350000D03*
X202050000Y-83600000D03*
X208450000Y-92260000D03*
X212550000Y-108350000D03*
X203850000Y-100550000D03*
X212350000Y-70650000D03*
%TO.N,+5V*%
X207630000Y-68950000D03*
X206550000Y-80300000D03*
X215150000Y-75250000D03*
%TO.N,Net-(D1-A)*%
X203600000Y-109150000D03*
%TO.N,/D_SIGNAL*%
X98000000Y-90900000D03*
%TO.N,/D_50HZ*%
X98100000Y-100800000D03*
%TD*%
D19*
%TO.N,GND*%
X213500000Y-76750000D02*
X213500000Y-77650000D01*
D20*
X205650000Y-107250000D02*
X205600000Y-107200000D01*
D19*
X212200000Y-90990000D02*
X212200000Y-89900000D01*
X208490000Y-97340000D02*
X208500000Y-97350000D01*
D20*
X212550000Y-107325000D02*
X212600000Y-107275000D01*
D19*
X200750000Y-83550000D02*
X202000000Y-83550000D01*
X208450000Y-92260000D02*
X206800000Y-92260000D01*
X213500000Y-77650000D02*
X212535000Y-78615000D01*
X208400000Y-94800000D02*
X208450000Y-94850000D01*
X202000000Y-83550000D02*
X202050000Y-83600000D01*
D20*
X212550000Y-108350000D02*
X212550000Y-107325000D01*
D19*
X206800000Y-94800000D02*
X208400000Y-94800000D01*
D20*
X171100000Y-75650000D02*
X171100000Y-77700000D01*
D19*
X205150000Y-100550000D02*
X203850000Y-100550000D01*
X211485000Y-78615000D02*
X212535000Y-78615000D01*
X212200000Y-89900000D02*
X212150000Y-89850000D01*
D20*
X171100000Y-77700000D02*
X170050000Y-78750000D01*
X198650000Y-108225000D02*
X198650000Y-107100000D01*
X205650000Y-108350000D02*
X205650000Y-107250000D01*
D19*
X211455000Y-70650000D02*
X211440000Y-70665000D01*
X212350000Y-70650000D02*
X211455000Y-70650000D01*
X206800000Y-97340000D02*
X208490000Y-97340000D01*
D20*
%TO.N,Net-(D1-K)*%
X200425000Y-105600000D02*
X200450000Y-105575000D01*
D19*
X200425000Y-104175000D02*
X202250000Y-102350000D01*
X207650000Y-102350000D02*
X209450000Y-100550000D01*
X200425000Y-105600000D02*
X200425000Y-104175000D01*
X209450000Y-94980000D02*
X210900000Y-93530000D01*
X202350000Y-105600000D02*
X200475000Y-105600000D01*
X202250000Y-102350000D02*
X207650000Y-102350000D01*
D20*
X200475000Y-105600000D02*
X200450000Y-105575000D01*
D19*
X210900000Y-93530000D02*
X212200000Y-93530000D01*
X198650000Y-105600000D02*
X200425000Y-105600000D01*
X209450000Y-100550000D02*
X209450000Y-94980000D01*
%TO.N,Net-(D2-K)*%
X213710000Y-98610000D02*
X214200000Y-99100000D01*
X212750000Y-105625000D02*
X212600000Y-105775000D01*
X212200000Y-98610000D02*
X213710000Y-98610000D01*
X214575000Y-105800000D02*
X214400000Y-105625000D01*
X216350000Y-105800000D02*
X214575000Y-105800000D01*
X214400000Y-99300000D02*
X214200000Y-99100000D01*
X214400000Y-105625000D02*
X212750000Y-105625000D01*
X214400000Y-105625000D02*
X214400000Y-99300000D01*
%TO.N,Net-(D3-K)*%
X207500000Y-105625000D02*
X207500000Y-104300000D01*
X207500000Y-105625000D02*
X205675000Y-105625000D01*
X207500000Y-104300000D02*
X210250000Y-101550000D01*
X211580000Y-96070000D02*
X212200000Y-96070000D01*
X210250000Y-101550000D02*
X210250000Y-97400000D01*
X210250000Y-97400000D02*
X211580000Y-96070000D01*
X209225000Y-105625000D02*
X209350000Y-105750000D01*
X207500000Y-105625000D02*
X209225000Y-105625000D01*
X205675000Y-105625000D02*
X205600000Y-105700000D01*
%TO.N,Net-(C4-Pad2)*%
X202000000Y-82050000D02*
X206300000Y-86350000D01*
X200700000Y-82000000D02*
X200750000Y-82050000D01*
X200700000Y-79900000D02*
X200700000Y-82000000D01*
X200750000Y-82050000D02*
X202000000Y-82050000D01*
X206300000Y-86350000D02*
X217900000Y-86350000D01*
X217900000Y-86350000D02*
X218750000Y-85500000D01*
D21*
%TO.N,+3V3*%
X97760000Y-72270000D02*
X97760000Y-74760000D01*
D20*
X97760000Y-72270000D02*
X97760000Y-72240000D01*
D19*
X206650000Y-100550000D02*
X206650000Y-98760000D01*
D20*
X216400000Y-110700000D02*
X216400000Y-111600000D01*
X97760000Y-72240000D02*
X98000000Y-72000000D01*
X172590000Y-75660000D02*
X172600000Y-75650000D01*
X199160000Y-98610000D02*
X195250000Y-94700000D01*
X215700000Y-112400000D02*
X209450000Y-112400000D01*
X209350000Y-110750000D02*
X209350000Y-112300000D01*
X137030000Y-78750000D02*
X137030000Y-81680000D01*
X172590000Y-78750000D02*
X172590000Y-75660000D01*
X202400000Y-112400000D02*
X196650000Y-112400000D01*
D19*
X96550000Y-78500000D02*
X96550000Y-75970000D01*
D20*
X209350000Y-112300000D02*
X209450000Y-112400000D01*
D21*
X97760000Y-69730000D02*
X97760000Y-72270000D01*
D20*
X172590000Y-81990000D02*
X172600000Y-82000000D01*
D19*
X96550000Y-75970000D02*
X97760000Y-74760000D01*
D20*
X206800000Y-98610000D02*
X199160000Y-98610000D01*
D19*
X137030000Y-81680000D02*
X137350000Y-82000000D01*
D21*
X132150000Y-82000000D02*
X137350000Y-82000000D01*
D20*
X131950000Y-78750000D02*
X131950000Y-81800000D01*
X193600000Y-82000000D02*
X137350000Y-82000000D01*
X202350000Y-110650000D02*
X202350000Y-112350000D01*
D19*
X131950000Y-81800000D02*
X132150000Y-82000000D01*
D20*
X172590000Y-78750000D02*
X172590000Y-81990000D01*
X195250000Y-111000000D02*
X195250000Y-94700000D01*
X196650000Y-112400000D02*
X195250000Y-111000000D01*
X209450000Y-112400000D02*
X202400000Y-112400000D01*
X202350000Y-112350000D02*
X202400000Y-112400000D01*
X216450000Y-111650000D02*
X215700000Y-112400000D01*
D21*
X105000000Y-82000000D02*
X132150000Y-82000000D01*
D19*
X206650000Y-98760000D02*
X206800000Y-98610000D01*
D20*
X195250000Y-94700000D02*
X195250000Y-83650000D01*
X216400000Y-111600000D02*
X216450000Y-111650000D01*
D21*
X97760000Y-74760000D02*
X105000000Y-82000000D01*
D20*
X195250000Y-83650000D02*
X193600000Y-82000000D01*
D19*
%TO.N,+5V*%
X212700000Y-75250000D02*
X212085000Y-75865000D01*
X213500000Y-75250000D02*
X215150000Y-75250000D01*
X213500000Y-75250000D02*
X212700000Y-75250000D01*
X207630000Y-68950000D02*
X207630000Y-70665000D01*
X212085000Y-75865000D02*
X211440000Y-75865000D01*
X206585000Y-78665000D02*
X206585000Y-80265000D01*
X206585000Y-80265000D02*
X206550000Y-80300000D01*
%TO.N,Net-(D1-A)*%
X202350000Y-109150000D02*
X201775000Y-109150000D01*
X201175000Y-107100000D02*
X202350000Y-107100000D01*
X200450000Y-107825000D02*
X201175000Y-107100000D01*
X201775000Y-109150000D02*
X200450000Y-107825000D01*
X203600000Y-109150000D02*
X202350000Y-109150000D01*
%TO.N,Net-(D2-A)*%
X216350000Y-107300000D02*
X217550000Y-107300000D01*
X214975000Y-107300000D02*
X216350000Y-107300000D01*
X227500000Y-97350000D02*
X227500000Y-93000000D01*
X217550000Y-107300000D02*
X227500000Y-97350000D01*
X214400000Y-107875000D02*
X215725000Y-109200000D01*
X215725000Y-109200000D02*
X216400000Y-109200000D01*
X214400000Y-107875000D02*
X214975000Y-107300000D01*
%TO.N,Net-(D3-A)*%
X227500000Y-107500000D02*
X224900000Y-110100000D01*
X208875000Y-109250000D02*
X209350000Y-109250000D01*
X207500000Y-107875000D02*
X208125000Y-107250000D01*
X210950000Y-110050000D02*
X210150000Y-109250000D01*
X207500000Y-107875000D02*
X208875000Y-109250000D01*
X224900000Y-110100000D02*
X224850000Y-110050000D01*
X224850000Y-110050000D02*
X210950000Y-110050000D01*
X208125000Y-107250000D02*
X209350000Y-107250000D01*
X210150000Y-109250000D02*
X209350000Y-109250000D01*
%TO.N,/RENC_A*%
X220800000Y-87050000D02*
X215590000Y-92260000D01*
X116830000Y-71520000D02*
X116830000Y-73380000D01*
X119330000Y-71020000D02*
X117330000Y-71020000D01*
X161750000Y-75650000D02*
X169600000Y-67800000D01*
X215590000Y-92260000D02*
X212200000Y-92260000D01*
X120620000Y-69730000D02*
X119330000Y-71020000D01*
X169600000Y-67800000D02*
X217650000Y-67800000D01*
X220800000Y-70950000D02*
X220800000Y-87050000D01*
X117330000Y-71020000D02*
X116830000Y-71520000D01*
X116830000Y-73380000D02*
X119100000Y-75650000D01*
X217650000Y-67800000D02*
X220800000Y-70950000D01*
X119100000Y-75650000D02*
X161750000Y-75650000D01*
%TO.N,/RENC_B*%
X119700000Y-74950000D02*
X160900000Y-74950000D01*
X160900000Y-74950000D02*
X168750000Y-67100000D01*
X222050000Y-87600000D02*
X214850000Y-94800000D01*
X222050000Y-70550000D02*
X222050000Y-87600000D01*
X118080000Y-73330000D02*
X119700000Y-74950000D01*
X118080000Y-72270000D02*
X118080000Y-73330000D01*
X218600000Y-67100000D02*
X222050000Y-70550000D01*
X214850000Y-94800000D02*
X212200000Y-94800000D01*
X168750000Y-67100000D02*
X218600000Y-67100000D01*
%TO.N,/RENC_SW*%
X219750000Y-66500000D02*
X223400000Y-70150000D01*
X121310000Y-66500000D02*
X219750000Y-66500000D01*
X223400000Y-70150000D02*
X223400000Y-88200000D01*
X214260000Y-97340000D02*
X212200000Y-97340000D01*
X118080000Y-69730000D02*
X121310000Y-66500000D01*
X223400000Y-88200000D02*
X214260000Y-97340000D01*
%TO.N,/D_READY*%
X113000000Y-69730000D02*
X109520000Y-66250000D01*
X109520000Y-66250000D02*
X96450000Y-66250000D01*
X96450000Y-66250000D02*
X86800000Y-75900000D01*
X86800000Y-75900000D02*
X86800000Y-81800000D01*
X95800000Y-84300000D02*
X96650000Y-85150000D01*
X96650000Y-85150000D02*
X96650000Y-85900000D01*
X86800000Y-81800000D02*
X89300000Y-84300000D01*
X89300000Y-84300000D02*
X95800000Y-84300000D01*
%TO.N,/D_SIGNAL*%
X96900000Y-90900000D02*
X96800000Y-91000000D01*
X98000000Y-90900000D02*
X96900000Y-90900000D01*
%TO.N,/D_INTERLACED*%
X97250000Y-67000000D02*
X87900000Y-76350000D01*
X110460000Y-68960000D02*
X108500000Y-67000000D01*
X110460000Y-69730000D02*
X110460000Y-68960000D01*
X98800000Y-85800000D02*
X98800000Y-95100000D01*
X90000000Y-83600000D02*
X96600000Y-83600000D01*
X97700000Y-96200000D02*
X96850000Y-96200000D01*
X98800000Y-95100000D02*
X97700000Y-96200000D01*
X96600000Y-83600000D02*
X98800000Y-85800000D01*
X108500000Y-67000000D02*
X97250000Y-67000000D01*
X87900000Y-76350000D02*
X87900000Y-81500000D01*
X87900000Y-81500000D02*
X90000000Y-83600000D01*
%TO.N,/D_50HZ*%
X98100000Y-100800000D02*
X96950000Y-100800000D01*
X96950000Y-100800000D02*
X96850000Y-100900000D01*
%TO.N,/D_60HZ*%
X90900000Y-82900000D02*
X97200000Y-82900000D01*
X97200000Y-82900000D02*
X99600000Y-85300000D01*
X89000000Y-81000000D02*
X90900000Y-82900000D01*
X107920000Y-69730000D02*
X107920000Y-68420000D01*
X98500000Y-105700000D02*
X96950000Y-105700000D01*
X89000000Y-76580811D02*
X89000000Y-81000000D01*
X97830811Y-67750000D02*
X89000000Y-76580811D01*
X99600000Y-104600000D02*
X98500000Y-105700000D01*
X107250000Y-67750000D02*
X97830811Y-67750000D01*
X99600000Y-85300000D02*
X99600000Y-104600000D01*
X107920000Y-68420000D02*
X107250000Y-67750000D01*
%TO.N,/SDA*%
X108200000Y-76800000D02*
X152860000Y-76800000D01*
X105380000Y-72270000D02*
X105380000Y-73980000D01*
X152860000Y-76800000D02*
X154810000Y-78750000D01*
X105380000Y-73980000D02*
X108200000Y-76800000D01*
D21*
X157350000Y-78750000D02*
X154810000Y-78750000D01*
D19*
%TO.N,/SCL*%
X105380000Y-69730000D02*
X105480000Y-69730000D01*
X115850000Y-76150000D02*
X158290000Y-76150000D01*
X113550000Y-71000000D02*
X114290000Y-71740000D01*
X114290000Y-74590000D02*
X115850000Y-76150000D01*
X105480000Y-69730000D02*
X106750000Y-71000000D01*
X114290000Y-71740000D02*
X114290000Y-74590000D01*
X106750000Y-71000000D02*
X113550000Y-71000000D01*
X158290000Y-76150000D02*
X159890000Y-77750000D01*
%TO.N,/FREEZE*%
X151020000Y-79267767D02*
X152152233Y-80400000D01*
X160200000Y-80400000D02*
X161180000Y-79420000D01*
X207670000Y-73765000D02*
X208900000Y-72535000D01*
X102840000Y-72270000D02*
X102840000Y-73440000D01*
X150047767Y-77300000D02*
X151020000Y-78272233D01*
X152152233Y-80400000D02*
X160200000Y-80400000D01*
X161180000Y-79420000D02*
X161180000Y-77520000D01*
X208900000Y-72535000D02*
X208900000Y-70665000D01*
X102840000Y-73440000D02*
X106700000Y-77300000D01*
X106700000Y-77300000D02*
X150047767Y-77300000D01*
X200700000Y-78400000D02*
X200700000Y-73765000D01*
X151020000Y-78272233D02*
X151020000Y-79267767D01*
X203920000Y-73765000D02*
X203920000Y-78365000D01*
X161180000Y-77520000D02*
X164935000Y-73765000D01*
X164935000Y-73765000D02*
X207670000Y-73765000D01*
%TO.N,Net-(U2-THR)*%
X210170000Y-72730000D02*
X208900000Y-74000000D01*
X209985000Y-78615000D02*
X209985000Y-78435000D01*
X208900000Y-75865000D02*
X208900000Y-77100000D01*
X208900000Y-74000000D02*
X208900000Y-75865000D01*
X208085000Y-78665000D02*
X209935000Y-78665000D01*
X209935000Y-78665000D02*
X209985000Y-78615000D01*
X210170000Y-70665000D02*
X210170000Y-72730000D01*
X210170000Y-72730000D02*
X213885000Y-72730000D01*
X213885000Y-72730000D02*
X216220000Y-75065000D01*
X208900000Y-77250000D02*
X208085000Y-78065000D01*
X218750000Y-80500000D02*
X216220000Y-77970000D01*
X208085000Y-78065000D02*
X208085000Y-78665000D01*
X216220000Y-77970000D02*
X216220000Y-75065000D01*
X208900000Y-77100000D02*
X208900000Y-77250000D01*
%TO.N,Net-(D4-Anode)*%
X205080000Y-81730000D02*
X203920000Y-80570000D01*
X210000000Y-81730000D02*
X205080000Y-81730000D01*
X203920000Y-80570000D02*
X203920000Y-79865000D01*
%TO.N,Net-(D5-Anode)*%
X95150000Y-85900000D02*
X92080000Y-85900000D01*
X92080000Y-85900000D02*
X92000000Y-85980000D01*
%TO.N,Net-(D6-Anode)*%
X92000000Y-91000000D02*
X95300000Y-91000000D01*
%TO.N,Net-(D7-Anode)*%
X95350000Y-96200000D02*
X92220000Y-96200000D01*
X92220000Y-96200000D02*
X92000000Y-95980000D01*
%TO.N,Net-(D8-Anode)*%
X95350000Y-100900000D02*
X92028832Y-100900000D01*
X92028832Y-100900000D02*
X92000000Y-100871168D01*
%TO.N,Net-(D9-Anode)*%
X95450000Y-105700000D02*
X92030000Y-105700000D01*
X92030000Y-105700000D02*
X92000000Y-105730000D01*
%TO.N,Net-(D10-Anode)*%
X95050000Y-78500000D02*
X92230000Y-78500000D01*
X92230000Y-78500000D02*
X92000000Y-78730000D01*
%TD*%
M02*
